<?xml version="1.0" encoding="UTF-8"?>
<svg version="1.1" xmlns="http://www.w3.org/2000/svg" width="300" height="297">
<path d="M0 0 C99 0 198 0 300 0 C300 98.01 300 196.02 300 297 C201 297 102 297 0 297 C0 198.99 0 100.98 0 0 Z " fill="#FDFDFE" transform="translate(0,0)"/>
<path d="M0 0 C1.12578209 0.52122437 1.12578209 0.52122437 2.27430725 1.05297852 C4.7480405 2.1990634 7.21969433 3.34956315 9.69140625 4.5 C11.44124958 5.31153582 13.19125239 6.12272785 14.94140625 6.93359375 C18.57727993 8.61845942 22.21246275 10.3048027 25.84716797 11.9921875 C33.34365165 15.47102995 40.84842355 18.93187793 48.35321045 22.39276123 C52.3869123 24.25316815 56.41998495 26.11493808 60.453125 27.9765625 C62.07600613 28.7255924 63.69889026 29.47461581 65.32177734 30.22363281 C75.33837891 34.84667969 75.33837891 34.84667969 77.89949036 36.02874756 C79.60332092 36.81511997 81.3071681 37.60145639 83.0110321 38.38775635 C87.16163594 40.30323147 91.31197033 42.21928536 95.46166992 44.13671875 C102.12310214 47.21410133 108.7848916 50.29033937 115.46052551 53.33682251 C117.34493193 54.19679651 119.22859964 55.05836768 121.11206055 55.92041016 C123.34620442 56.94203083 125.58194336 57.96017359 127.81958008 58.97412109 C128.78404053 59.41578613 129.74850098 59.85745117 130.7421875 60.3125 C131.57274658 60.69019531 132.40330566 61.06789063 133.2590332 61.45703125 C135.25390625 62.5 135.25390625 62.5 137.25390625 64.5 C135.32020394 65.50732399 133.38180319 66.50563288 131.44140625 67.5 C130.36246094 68.056875 129.28351563 68.61375 128.171875 69.1875 C125.25390625 70.5 125.25390625 70.5 122.25390625 70.5 C122.26878341 79.9319628 122.3103864 89.36332053 122.38599682 98.7949934 C122.42026985 103.17467772 122.44537723 107.55401312 122.44946289 111.93383789 C122.45374526 116.16167863 122.48220191 120.38873222 122.52733803 124.61632729 C122.54031517 126.22818731 122.54461991 127.84014153 122.54006004 129.45204735 C122.53515509 131.7126269 122.56123572 133.97090483 122.59448242 136.23120117 C122.60447517 138.15980232 122.60447517 138.15980232 122.6146698 140.12736511 C123.4146955 144.34832994 125.09460631 145.70168643 128.25390625 148.5 C129.43380864 152.03970718 129.44959893 154.78183899 129.25390625 158.5 C128.9266153 159.14459167 128.59932434 159.78918335 128.26211548 160.45330811 C127.13098236 162.74953881 126.98105234 164.26458275 126.93505859 166.80957031 C126.9151889 167.65013977 126.89531921 168.49070923 126.87484741 169.35675049 C126.8632962 170.25480408 126.851745 171.15285767 126.83984375 172.078125 C126.8204776 173.0046991 126.80111145 173.93127319 126.78115845 174.88592529 C126.72145858 177.84052371 126.67501557 180.79516129 126.62890625 183.75 C126.59071765 185.75522517 126.5516654 187.76043409 126.51171875 189.765625 C126.41576485 194.67695111 126.33169822 199.588354 126.25390625 204.5 C124.93390625 204.5 123.61390625 204.5 122.25390625 204.5 C122.25390625 191.96 122.25390625 179.42 122.25390625 166.5 C121.59390625 166.83 120.93390625 167.16 120.25390625 167.5 C119.92390625 180.04 119.59390625 192.58 119.25390625 205.5 C118.26390625 205.5 117.27390625 205.5 116.25390625 205.5 C116.25390625 192.63 116.25390625 179.76 116.25390625 166.5 C115.59390625 166.5 114.93390625 166.5 114.25390625 166.5 C114.25390625 179.04 114.25390625 191.58 114.25390625 204.5 C112.93390625 204.5 111.61390625 204.5 110.25390625 204.5 C110.23408691 203.27893555 110.21426758 202.05787109 110.19384766 200.79980469 C110.11774502 196.26720646 110.02903464 191.7349273 109.93652344 187.20263672 C109.89825298 185.2414378 109.86339671 183.28016916 109.83203125 181.31884766 C109.78633885 178.49877003 109.72835125 175.67917162 109.66796875 172.859375 C109.65064194 171.54510529 109.65064194 171.54510529 109.63296509 170.20428467 C109.60316055 168.97346161 109.60316055 168.97346161 109.57275391 167.71777344 C109.55943024 166.99829529 109.54610657 166.27881714 109.53237915 165.53753662 C109.21181435 163.19202103 108.36452442 161.57537947 107.25390625 159.5 C106.50374803 154.70247649 106.82254868 151.3052008 109.12890625 147 C111.25390625 144.5 111.25390625 144.5 113.25390625 143.5 C113.25390625 121.06 113.25390625 98.62 113.25390625 75.5 C108.98453125 77.43875 104.71515625 79.3775 100.31640625 81.375 C86.83395978 87.47885531 73.29569372 93.44901241 59.73577881 99.37844849 C43.78895794 106.35440922 27.90891918 113.47257519 12.05607605 120.65933228 C9.80720528 121.6741656 7.55331441 122.67704121 5.29833984 123.67822266 C2.75610434 124.80927264 0.27137316 125.98705943 -2.22412109 127.22412109 C-3.24586426 127.71090332 -4.26760742 128.19768555 -5.3203125 128.69921875 C-6.58814575 129.33670044 -6.58814575 129.33670044 -7.8815918 129.98706055 C-12.31298767 130.78057991 -15.65594319 129.16937527 -19.74609375 127.5 C-20.4979747 127.19525253 -21.24985565 126.89050507 -22.02452087 126.57652283 C-24.41519244 125.57978455 -26.7884341 124.54880374 -29.16015625 123.5078125 C-30.03915085 123.1259227 -30.91814545 122.7440329 -31.82377625 122.35057068 C-33.70055035 121.53493006 -35.5766279 120.71768505 -37.45205688 119.8989563 C-42.42782815 117.72737867 -47.40932657 115.56901828 -52.390625 113.41015625 C-53.87398598 112.76689644 -53.87398598 112.76689644 -55.38731384 112.11064148 C-63.25410102 108.70316061 -71.14511361 105.36005669 -79.05859375 102.0625 C-94.38725991 95.67223242 -109.66560175 89.16522716 -124.94262695 82.65258789 C-136.86440523 77.57123278 -148.79728906 72.51748978 -160.74609375 67.5 C-160.74609375 66.84 -160.74609375 66.18 -160.74609375 65.5 C-158.7265625 64.52083333 -156.70703125 63.54166667 -154.6875 62.5625 C-154.04507858 62.2510202 -153.40265717 61.93954041 -152.74076843 61.61862183 C-149.09575667 59.85133189 -145.45072586 58.08408125 -141.80566406 56.31689453 C-134.27892552 52.6677573 -126.75240769 49.01816683 -119.2265625 45.3671875 C-102.60406151 37.30370416 -85.97324843 29.25777648 -69.33300781 21.23095703 C-65.03197268 19.15538263 -60.73181319 17.07800071 -56.43251038 14.99884033 C-53.37321159 13.51972027 -50.31261609 12.04343016 -47.2487793 10.57373047 C-41.47932494 7.80271537 -35.73216954 4.99976479 -30.0234375 2.10546875 C-28.9720459 1.58041748 -27.9206543 1.05536621 -26.83740234 0.5144043 C-24.87516144 -0.46671616 -22.92042941 -1.46306069 -20.97509766 -2.47729492 C-20.10675293 -2.9076001 -19.2384082 -3.33790527 -18.34375 -3.78125 C-17.59617432 -4.16345703 -16.84859863 -4.54566406 -16.07836914 -4.93945312 C-10.61281353 -6.25306306 -4.88730277 -2.28346945 0 0 Z " fill="#09588B" transform="translate(161.74609375,5.5)"/>
<path d="M0 0 C0 30.03 0 60.06 0 91 C-21.89874984 100.81668096 -43.80412005 110.61584311 -65.74440002 120.33889771 C-71.00120434 122.66860969 -76.25531103 125.00421395 -81.50654602 127.34645081 C-84.49808397 128.67904763 -87.49229451 130.00554376 -90.48739624 131.33010864 C-91.85819116 131.93778062 -93.22786666 132.54798482 -94.59634399 133.16085815 C-96.45832695 133.99426753 -98.32475189 134.81773182 -100.19140625 135.640625 C-101.74130249 136.32946777 -101.74130249 136.32946777 -103.32250977 137.03222656 C-107.30681903 138.4723471 -110.16953922 138.13775631 -113.96264648 136.55737305 C-115.12825607 136.07771339 -115.12825607 136.07771339 -116.31741333 135.58836365 C-117.16012787 135.23307083 -118.00284241 134.87777802 -118.87109375 134.51171875 C-119.76472626 134.1414003 -120.65835876 133.77108185 -121.57907104 133.38954163 C-124.53480958 132.16243963 -127.48614403 130.92510148 -130.4375 129.6875 C-132.49678009 128.82990199 -134.55627202 127.9728125 -136.6159668 127.11621094 C-153.04723054 120.27304541 -169.44876972 113.35756908 -185.83569336 106.40893555 C-186.72644562 106.03143661 -187.61719788 105.65393768 -188.53494263 105.26499939 C-190.15294665 104.57902291 -191.77064895 103.89233387 -193.38790894 103.2046051 C-201.56590802 99.73699915 -209.78448599 96.38285871 -218 93 C-218 63.3 -218 33.6 -218 3 C-213.69268879 3.86146224 -210.08569156 5.07925742 -206.09765625 6.7890625 C-205.40766037 7.08044098 -204.71766449 7.37181946 -204.00675964 7.67202759 C-201.69005402 8.65181133 -199.37631236 9.63840518 -197.0625 10.625 C-195.41585087 11.32297054 -193.76903639 12.02055111 -192.12207031 12.71777344 C-186.41152677 15.13771004 -180.70564244 17.56853498 -175 20 C-172.69450431 20.98210953 -170.38900279 21.96420537 -168.08349609 22.94628906 C-165.66372982 23.97719674 -163.2439708 25.00812144 -160.82421875 26.0390625 C-159.01492638 26.80985641 -159.01492638 26.80985641 -157.16908264 27.59622192 C-151.16382005 30.15491994 -145.15934331 32.71542984 -139.15649414 35.27978516 C-138.02713943 35.76176361 -136.89778473 36.24374207 -135.73420715 36.74032593 C-133.62085059 37.64226349 -131.50785589 38.54504963 -129.39530945 39.44888306 C-127.50229758 40.25635846 -125.6071506 41.05885235 -123.70959473 41.85559082 C-121.87989752 42.62837144 -120.05758078 43.41882981 -118.24255371 44.22546387 C-117.36941528 44.6019104 -116.49627686 44.97835693 -115.59667969 45.36621094 C-114.82990906 45.70521423 -114.06313843 46.04421753 -113.27313232 46.39349365 C-109.23936476 47.46976431 -105.83287983 46.07741353 -102.12890625 44.44042969 C-101.40090317 44.1215831 -100.67290009 43.80273651 -99.9228363 43.47422791 C-99.14392532 43.12695145 -98.36501434 42.77967499 -97.5625 42.421875 C-96.32651817 41.87781761 -96.32651817 41.87781761 -95.06556702 41.32276917 C-92.37484374 40.13676178 -89.687404 38.9435072 -87 37.75 C-85.12833108 36.9230652 -83.25650361 36.0964892 -81.38452148 35.27026367 C-69.79910426 30.15149301 -58.23487662 24.98578997 -46.68237305 19.79321289 C-37.67678088 15.74632692 -28.66287606 11.71855605 -19.63644409 7.71835327 C-18.09656722 7.03529591 -16.55727248 6.35092455 -15.01858521 5.66519165 C-12.88503333 4.71466048 -10.74945512 3.76883964 -8.61328125 2.82421875 C-7.97207336 2.53743256 -7.33086548 2.25064636 -6.67022705 1.95516968 C-2.22840889 0 -2.22840889 0 0 0 Z " fill="#08588A" transform="translate(260,100)"/>
<path d="M0 0 C48.84 0 97.68 0 148 0 C144.46665021 2.65001234 141.05899709 4.56579565 137.11328125 6.44921875 C136.09114281 6.94356918 136.09114281 6.94356918 135.0483551 7.44790649 C132.80498213 8.53178527 130.55876174 9.60962251 128.3125 10.6875 C126.73758635 11.44708152 125.16288224 12.20709762 123.58837891 12.9675293 C120.33441933 14.53854494 117.07944491 16.1074292 113.82373047 17.67480469 C109.28586791 19.86058023 104.75319357 22.05690018 100.22265625 24.2578125 C99.52504684 24.5966748 98.82743744 24.93553711 98.10868835 25.28466797 C96.71980204 25.95933843 95.33092157 26.63402093 93.94204712 27.30871582 C82.87466469 32.68317646 71.79332893 38.02762227 60.69580078 43.33959961 C54.49858695 46.30978765 48.31237499 49.30190532 42.1328125 52.30859375 C41.35865997 52.68517624 40.58450745 53.06175873 39.78689575 53.44975281 C35.96194272 55.31079589 32.13784557 57.17357031 28.31494141 59.03881836 C3.77389931 71 3.77389931 71 1 71 C0.505 71.99 0.505 71.99 0 73 C0 48.91 0 24.82 0 0 Z " fill="#FEFEFE" transform="translate(0,0)"/>
<path d="M0 0 C49.5 0 99 0 150 0 C150 23.1 150 46.2 150 70 C126.97869574 59.64041308 126.97869574 59.64041308 115.64648438 54.36816406 C110.39456256 51.9261593 105.14071641 49.48831606 99.88671875 47.05078125 C98.98065887 46.6302951 98.074599 46.20980896 97.14108276 45.77658081 C87.7648174 41.42552118 78.38425832 37.08379289 69 32.75 C68.19853546 32.37982758 67.39707092 32.00965515 66.57131958 31.62826538 C54.41765659 26.01698181 42.24017956 20.45967828 30.04763794 14.93344116 C19.99080595 10.37473271 9.9630066 5.76094819 0 1 C0 0.67 0 0.34 0 0 Z " fill="#FEFEFE" transform="translate(150,0)"/>
<path d="M0 0 C2.15634036 0 3.92446352 -0.4465236 6 -1 C6 1.64 6 4.28 6 7 C8.31 7 10.62 7 13 7 C13 4.36 13 1.72 13 -1 C13.99 -1 14.98 -1 16 -1 C16 5.6 16 12.2 16 19 C15.01 19 14.02 19 13 19 C13 16.03 13 13.06 13 10 C10.69 10 8.38 10 6 10 C6 12.97 6 15.94 6 19 C4.68 18.67 3.36 18.34 2 18 C-0.0745356 17.8509288 -0.0745356 17.8509288 -2 19 C-5.4418822 19.37411763 -7.34002738 19.41025325 -10.3125 17.5625 C-12.74693364 13.86576743 -13.21178743 10.39262812 -13 6 C-10.13769606 -0.72641427 -6.80636294 -1.23752053 0 0 Z " fill="#EEF4F6" transform="translate(80,254)"/>
<path d="M0 0 C2.84728568 1.98072047 4.66712064 3.44237582 5.4140625 6.9375 C5.59977402 11.39457643 4.83256941 14.43306074 2 18 C-1.49124017 20.32749345 -2.89222251 20.50299316 -7 20 C-9.69367891 18.32555095 -10.73575445 16.97010695 -11.5703125 13.90625 C-12.17002673 10.07828685 -12.28618309 7.67253027 -10.75 4.0625 C-7.46242705 0.18786045 -4.95555443 -0.69377762 0 0 Z " fill="#0F5889" transform="translate(111,253)"/>
<path d="M0 0 C2.4375 1.3125 2.4375 1.3125 4 4 C4.88324196 9.41610635 4.96423078 13.55365383 1.875 18.1875 C-1.50188906 20.31640832 -3.08263344 20.6667858 -7 20 C-10.1359157 18.22015595 -10.84102736 17.47691793 -12 14 C-12.41411765 5.30352941 -12.41411765 5.30352941 -10 2 C-6.2794164 -0.48038907 -4.40203429 -0.46337203 0 0 Z " fill="#105989" transform="translate(130,253)"/>
<path d="M0 0 C1.65 0 3.3 0 5 0 C5.67354499 1.43429001 6.33859701 2.87257057 7 4.3125 C7.556875 5.51326172 7.556875 5.51326172 8.125 6.73828125 C9 9 9 9 9 12 C9.66 12 10.32 12 11 12 C11.99 8.37 12.98 4.74 14 1 C15.98 1 17.96 1 20 1 C20 7.27 20 13.54 20 20 C19.01 20 18.02 20 17 20 C16.505 13.565 16.505 13.565 16 7 C14.68 11.29 13.36 15.58 12 20 C10.68 20 9.36 20 8 20 C6.68 16.04 5.36 12.08 4 8 C3.67 11.96 3.34 15.92 3 20 C2.01 20 1.02 20 0 20 C0 13.4 0 6.8 0 0 Z " fill="#236692" transform="translate(185,253)"/>
<path d="M0 0 C1.890625 0.15234375 1.890625 0.15234375 4 1 C6.03890957 3.83837675 7.41306638 6.87021424 9 10 C9.33 6.7 9.66 3.4 10 0 C10.99 0 11.98 0 13 0 C13 6.6 13 13.2 13 20 C11.68 20 10.36 20 9 20 C7.02 16.04 5.04 12.08 3 8 C2.67 11.96 2.34 15.92 2 20 C1.01 20 0.02 20 -1 20 C-1.02888514 16.85418577 -1.04675923 13.70840531 -1.0625 10.5625 C-1.07087891 9.66466797 -1.07925781 8.76683594 -1.08789062 7.84179688 C-1.09111328 6.98779297 -1.09433594 6.13378906 -1.09765625 5.25390625 C-1.10551147 4.06776733 -1.10551147 4.06776733 -1.11352539 2.85766602 C-1 1 -1 1 0 0 Z " fill="#195E8D" transform="translate(241,253)"/>
<path d="M0 0 C1.32 0 2.64 0 4 0 C5.00486895 2.95670218 6.00306024 5.91561577 7 8.875 C7.28617188 9.71675781 7.57234375 10.55851562 7.8671875 11.42578125 C8.13789063 12.23144531 8.40859375 13.03710938 8.6875 13.8671875 C9.06455078 14.98262939 9.06455078 14.98262939 9.44921875 16.12060547 C10 18 10 18 10 20 C8.68 20 7.36 20 6 20 C5.67 18.35 5.34 16.7 5 15 C2.69 15 0.38 15 -2 15 C-2.33 16.65 -2.66 18.3 -3 20 C-3.99 20 -4.98 20 -6 20 C-5.46137794 14.07515739 -4.29622483 4.29622483 0 0 Z " fill="#105A8C" transform="translate(173,253)"/>
<path d="M0 0 C0.66 0.33 1.32 0.66 2 1 C1.67 2.32 1.34 3.64 1 5 C0.071875 4.773125 -0.85625 4.54625 -1.8125 4.3125 C-4.89305716 3.70178506 -4.89305716 3.70178506 -6.875 5.0625 C-8.49933741 7.85996999 -8.39704314 9.82365485 -8 13 C-6.81104764 14.94032404 -6.81104764 14.94032404 -5 16 C-4.01 16 -3.02 16 -2 16 C-1.67 14.68 -1.34 13.36 -1 12 C-2.32 12 -3.64 12 -5 12 C-5 11.01 -5 10.02 -5 9 C-2.69 9 -0.38 9 2 9 C2 12.3 2 15.6 2 19 C-6.04 20.44 -6.04 20.44 -10 18.625 C-12.82163478 14.92160435 -13.4314834 11.61847045 -13 7 C-9.55171375 0.34124035 -7.26196327 -0.25935583 0 0 Z " fill="#125988" transform="translate(270,253)"/>
<path d="M0 0 C1.32 0.33 2.64 0.66 4 1 C4 5.95 4 10.9 4 16 C5.65 16 7.3 16 9 16 C10.4807848 13.0384304 10.35314037 10.16493705 10.5625 6.875 C10.64628906 5.59367187 10.73007813 4.31234375 10.81640625 2.9921875 C10.87699219 2.00476563 10.93757812 1.01734375 11 0 C11.99 0 12.98 0 14 0 C14.1081866 2.58445773 14.18737237 5.16437352 14.25 7.75 C14.30027344 8.84441406 14.30027344 8.84441406 14.3515625 9.9609375 C14.41646997 13.53084849 14.31757878 15.56841859 12.171875 18.484375 C9.2131524 20.54909509 7.53423186 20.58903864 4 20 C1.828125 18.484375 1.828125 18.484375 0 16 C-0.2906124 13.10550051 -0.38186045 10.62050065 -0.25 7.75 C-0.23195312 7.00492187 -0.21390625 6.25984375 -0.1953125 5.4921875 C-0.14835649 3.66090299 -0.07661652 1.83028351 0 0 Z " fill="#327099" transform="translate(222,253)"/>
<path d="M0 0 C0.99 0 1.98 0 3 0 C3 2.64 3 5.28 3 8 C5.31 8 7.62 8 10 8 C10 5.36 10 2.72 10 0 C10.99 0 11.98 0 13 0 C13 6.6 13 13.2 13 20 C12.01 20 11.02 20 10 20 C10 17.03 10 14.06 10 11 C7.69 11 5.38 11 3 11 C3 13.97 3 16.94 3 20 C2.01 20 1.02 20 0 20 C0 13.4 0 6.8 0 0 Z " fill="#095285" transform="translate(83,253)"/>
<path d="M0 0 C0.33 1.32 0.66 2.64 1 4 C-0.65 4 -2.3 4 -4 4 C-4.33 4.99 -4.66 5.98 -5 7 C-4.21625 7.28875 -3.4325 7.5775 -2.625 7.875 C0 9 0 9 2 11 C2.33015665 14.10347254 2.50531294 16.15781176 0.875 18.875 C-1.81717543 20.49030526 -3.92153205 20.26199727 -7 20 C-7.66 19.67 -8.32 19.34 -9 19 C-8.67 17.68 -8.34 16.36 -8 15 C-6.35 15.33 -4.7 15.66 -3 16 C-2.67 14.68 -2.34 13.36 -2 12 C-3.175625 11.566875 -3.175625 11.566875 -4.375 11.125 C-7 10 -7 10 -9 8 C-9.36023622 5.19015752 -9.38332602 3.61758081 -7.875 1.1875 C-5.22464043 -0.49106106 -3.06753576 -0.20450238 0 0 Z " fill="#155B8A" transform="translate(217,253)"/>
<path d="M0 0 C0 0.99 0 1.98 0 3 C-1.98 3 -3.96 3 -6 3 C-5.31782945 6.20145968 -5.31782945 6.20145968 -2.5 7.3125 C0 9 0 9 1.0625 11.9375 C1 15 1 15 -0.5625 17.375 C-3.62687488 19.41791658 -5.38350702 19.47171648 -9 19 C-9.66 18.34 -10.32 17.68 -11 17 C-11 16.01 -11 15.02 -11 14 C-8.69 14.33 -6.38 14.66 -4 15 C-4 14.01 -4 13.02 -4 12 C-4.99 11.401875 -5.98 10.80375 -7 10.1875 C-10 8 -10 8 -10.5625 4.9375 C-10 2 -10 2 -8.9375 0.0625 C-5.87530347 -1.61676907 -3.30629059 -0.68621125 0 0 Z " fill="#0E5687" transform="translate(165,254)"/>
<path d="M0 0 C0.33 0 0.66 0 1 0 C1 13.86 1 27.72 1 42 C-0.485 42.495 -0.485 42.495 -2 43 C-2.04953293 37.67978261 -2.08578256 32.35970024 -2.10986328 27.03930664 C-2.11990487 25.23036357 -2.1335408 23.42143667 -2.15087891 21.61254883 C-2.17520832 19.00858565 -2.18650161 16.40483758 -2.1953125 13.80078125 C-2.21079636 12.59268547 -2.21079636 12.59268547 -2.22659302 11.36018372 C-2.22743729 7.11030774 -1.96516229 3.87932557 0 0 Z " fill="#045285" transform="translate(287,168)"/>
<path d="M0 0 C0.33 1.32 0.66 2.64 1 4 C-0.65 4 -2.3 4 -4 4 C-3.26486376 7.19192456 -3.26486376 7.19192456 -0.4375 8.8125 C2 11 2 11 2.5 14.0625 C2 17 2 17 0.875 18.875 C-1.84218824 20.50531294 -3.89652746 20.33015665 -7 20 C-7.66 19.34 -8.32 18.68 -9 18 C-8.505 16.515 -8.505 16.515 -8 15 C-5.03 15.495 -5.03 15.495 -2 16 C-2 15.01 -2 14.02 -2 13 C-2.969375 12.38125 -3.93875 11.7625 -4.9375 11.125 C-8 9 -8 9 -9.125 6.5 C-9 4 -9 4 -7.375 1.6875 C-4.63099885 -0.26218503 -3.28993102 -0.36554789 0 0 Z " fill="#034E82" transform="translate(63,253)"/>
<path d="M0 0 C-0.33 1.32 -0.66 2.64 -1 4 C-2.65 3.67 -4.3 3.34 -6 3 C-8.31332486 6.46998729 -8.33957563 7.92509248 -8 12 C-7.01 13.485 -7.01 13.485 -6 15 C-4.02 14.67 -2.04 14.34 0 14 C0 15.32 0 16.64 0 18 C-2.84083641 19.42041821 -4.85477278 19.31452272 -8 19 C-10.69367891 17.32555095 -11.73575445 15.97010695 -12.5703125 12.90625 C-13.17002673 9.07828685 -13.28618309 6.67253027 -11.75 3.0625 C-7.91849426 -1.45320319 -5.52409915 -1.04228286 0 0 Z " fill="#1C608F" transform="translate(80,254)"/>
<path d="M0 0 C4.29 0 8.58 0 13 0 C13 1.32 13 2.64 13 4 C11.35 4 9.7 4 8 4 C8 9.28 8 14.56 8 20 C6.68 19.67 5.36 19.34 4 19 C4 14.05 4 9.1 4 4 C2.68 4 1.36 4 0 4 C0 2.68 0 1.36 0 0 Z " fill="#296A96" transform="translate(34,253)"/>
<path d="M0 0 C1.9375 0.8125 1.9375 0.8125 3.9375 2.8125 C4.28923852 6.61127599 4.46451444 8.95610153 2.4375 12.25 C1.9425 12.765625 1.4475 13.28125 0.9375 13.8125 C-3.9375 12.9375 -3.9375 12.9375 -5.0625 11.8125 C-5.265625 9.8515625 -5.265625 9.8515625 -5.3125 7.4375 C-5.33828125 6.64601563 -5.3640625 5.85453125 -5.390625 5.0390625 C-4.90337514 1.73272418 -3.49424962 -0.31765906 0 0 Z " fill="#F0F5F7" transform="translate(127.0625,256.1875)"/>
<path d="M0 0 C2.375 0.8125 2.375 0.8125 3.375 2.8125 C3.83477011 10.05387931 3.83477011 10.05387931 2.125 12.875 C0.375 13.8125 0.375 13.8125 -1.6875 13.6875 C-3.625 12.8125 -3.625 12.8125 -5.625 9.8125 C-6.16830065 3.72753268 -6.16830065 3.72753268 -4.4375 0.8125 C-2.625 -0.1875 -2.625 -0.1875 0 0 Z " fill="#F3F7F8" transform="translate(108.625,256.1875)"/>
<path d="M0 0 C0.99 0 1.98 0 3 0 C3 5.28 3 10.56 3 16 C4.98 16 6.96 16 9 16 C9 17.32 9 18.64 9 20 C7.52093108 20.02689216 6.04172517 20.04634621 4.5625 20.0625 C3.32693359 20.07990234 3.32693359 20.07990234 2.06640625 20.09765625 C0 20 0 20 -1 19 C-1.0983721 17.66956375 -1.13078592 16.33406656 -1.1328125 15 C-1.13410156 14.195625 -1.13539063 13.39125 -1.13671875 12.5625 C-1.13285156 11.716875 -1.12898437 10.87125 -1.125 10 C-1.12886719 9.154375 -1.13273438 8.30875 -1.13671875 7.4375 C-1.13542969 6.633125 -1.13414062 5.82875 -1.1328125 5 C-1.13168457 4.2575 -1.13055664 3.515 -1.12939453 2.75 C-1 1 -1 1 0 0 Z " fill="#256893" transform="translate(138,253)"/>
<path d="M0 0 C1.98 0 3.96 0 6 0 C6 6.27 6 12.54 6 19 C5.01 19 4.02 19 3 19 C2.67 14.71 2.34 10.42 2 6 C1.01 8.64 0.02 11.28 -1 14 C-1.66 13.67 -2.32 13.34 -3 13 C-2.45144652 8.428721 -1.58255197 4.32564205 0 0 Z " fill="#085184" transform="translate(199,254)"/>
<path d="M0 0 C1.32 0.33 2.64 0.66 4 1 C4 6.94 4 12.88 4 19 C2.68 19.33 1.36 19.66 0 20 C0 13.4 0 6.8 0 0 Z " fill="#266693" transform="translate(28,253)"/>
<path d="M0 0 C0.33 0 0.66 0 1 0 C1 2.64 1 5.28 1 8 C1.66 8 2.32 8 3 8 C3.33 7.34 3.66 6.68 4 6 C5.98 7.32 7.96 8.64 10 10 C9.67 11.65 9.34 13.3 9 15 C6.36 14.67 3.72 14.34 1 14 C0.67 14.99 0.34 15.98 0 17 C0 11.39 0 5.78 0 0 Z " fill="#EFF6F8" transform="translate(205,255)"/>
<path d="M0 0 C0.99 0.66 1.98 1.32 3 2 C2.01 5.3 1.02 8.6 0 12 C2.97 12.495 2.97 12.495 6 13 C6 13.33 6 13.66 6 14 C3.69 14 1.38 14 -1 14 C-1.33 15.65 -1.66 17.3 -2 19 C-2.99 19 -3.98 19 -5 19 C-4.39297368 12.3227105 -2.22368606 6.29872004 0 0 Z " fill="#0E5587" transform="translate(172,254)"/>
<path d="M0 0 C0.99 0 1.98 0 3 0 C3.05394705 2.60444348 3.09364469 5.20776998 3.125 7.8125 C3.14175781 8.55048828 3.15851563 9.28847656 3.17578125 10.04882812 C3.21074628 13.91246426 3.19397555 15.70903668 1 19 C-0.98 18.67 -2.96 18.34 -5 18 C-4.35546875 17.48953125 -3.7109375 16.9790625 -3.046875 16.453125 C-0.32143762 13.18676112 -0.40576117 10.95555161 -0.25 6.75 C-0.19328125 5.48671875 -0.1365625 4.2234375 -0.078125 2.921875 C-0.05234375 1.95765625 -0.0265625 0.9934375 0 0 Z " fill="#0A5285" transform="translate(233,253)"/>
<path d="M0 0 C2.475 0.495 2.475 0.495 5 1 C4.84660156 1.51046875 4.69320312 2.0209375 4.53515625 2.546875 C3.83094597 5.7749338 3.65111796 8.95418001 3.4375 12.25 C3.35371094 13.51328125 3.26992187 14.7765625 3.18359375 16.078125 C3.12300781 17.04234375 3.06242188 18.0065625 3 19 C2.01 19 1.02 19 0 19 C0 12.73 0 6.46 0 0 Z " fill="#074F83" transform="translate(185,254)"/>
<path d="M0 0 C1.32 0.33 2.64 0.66 4 1 C3.67 6.94 3.34 12.88 3 19 C2.01 19 1.02 19 0 19 C0 12.73 0 6.46 0 0 Z " fill="#075183" transform="translate(240,254)"/>
<path d="M0 0 C0.33 0 0.66 0 1 0 C1 2.64 1 5.28 1 8 C1.99 7.67 2.98 7.34 4 7 C4.99 8.485 4.99 8.485 6 10 C7.32 10 8.64 10 10 10 C10 11.32 10 12.64 10 14 C6.60543766 14.30859658 4.62289441 14.38720463 1.6875 12.5625 C-0.69806398 8.93997692 -1.04361865 5.30079884 -1 1 C-0.67 0.67 -0.34 0.34 0 0 Z " fill="#216491" transform="translate(100,259)"/>
<path d="M0 0 C1.32 0 2.64 0 4 0 C6.21538462 6.27692308 6.21538462 6.27692308 5.125 9.9375 C4.568125 10.9584375 4.568125 10.9584375 4 12 C2.35 12 0.7 12 -1 12 C-0.76603516 11.07767578 -0.76603516 11.07767578 -0.52734375 10.13671875 C-0.33269531 9.32847656 -0.13804687 8.52023437 0.0625 7.6875 C0.25972656 6.88699219 0.45695313 6.08648437 0.66015625 5.26171875 C1.19885554 2.84042821 1.19885554 2.84042821 0 0 Z " fill="#1F6390" transform="translate(173,253)"/>
<path d="M0 0 C0.33 1.32 0.66 2.64 1 4 C-0.65 4 -2.3 4 -4 4 C-3.67 5.32 -3.34 6.64 -3 8 C-3.99 8.495 -3.99 8.495 -5 9 C-5 8.34 -5 7.68 -5 7 C-5.66 7 -6.32 7 -7 7 C-7.33 7.66 -7.66 8.32 -8 9 C-8.75 6.75 -8.75 6.75 -9 4 C-6.38963955 0.28525628 -4.46747375 -0.49638597 0 0 Z " fill="#105687" transform="translate(63,253)"/>
<path d="M0 0 C0.66 0 1.32 0 2 0 C2.22223194 2.74086056 2.34781139 4.43963721 0.875 6.8125 C-1.81090902 8.51357571 -3.88657099 8.26497268 -7 8 C-7.66 7.67 -8.32 7.34 -9 7 C-8.67 5.68 -8.34 4.36 -8 3 C-5.69 3.33 -3.38 3.66 -1 4 C-0.67 2.68 -0.34 1.36 0 0 Z " fill="#105788" transform="translate(217,265)"/>
<path d="M0 0 C0.99 0 1.98 0 3 0 C3 5.28 3 10.56 3 16 C2.01 16 1.02 16 0 16 C0 10.72 0 5.44 0 0 Z " fill="#075285" transform="translate(39,257)"/>
<path d="M0 0 C0.75 1.75 0.75 1.75 1 4 C-0.5625 6.25 -0.5625 6.25 -3 8 C-6.125 8.375 -6.125 8.375 -9 8 C-9.66 7.34 -10.32 6.68 -11 6 C-11 5.01 -11 4.02 -11 3 C-9.39125 3.2784375 -9.39125 3.2784375 -7.75 3.5625 C-4.59608454 3.9304568 -2.90181508 4.04465343 0 3 C0 2.01 0 1.02 0 0 Z " fill="#1E618E" transform="translate(165,265)"/>
<path d="M0 0 C0.33 0.66 0.66 1.32 1 2 C0.195625 2.33 -0.60875 2.66 -1.4375 3 C-4.12410424 4.68921133 -4.12410424 4.68921133 -4.5546875 6.98046875 C-4.7881295 8.97887376 -4.90116895 10.99043533 -5 13 C-5.66 13 -6.32 13 -7 13 C-7.2493357 11.39884424 -7.47378648 9.79379841 -7.6875 8.1875 C-7.81511719 7.29417969 -7.94273438 6.40085937 -8.07421875 5.48046875 C-8 3 -8 3 -6.6875 1.1875 C-4.4011239 -0.42143133 -2.72977292 -0.22133294 0 0 Z " fill="#095386" transform="translate(108,254)"/>
<path d="M0 0 C0.99 0 1.98 0 3 0 C3 4.29 3 8.58 3 13 C2.01 13.33 1.02 13.66 0 14 C0 9.38 0 4.76 0 0 Z " fill="#085284" transform="translate(222,253)"/>
<path d="M0 0 C2.31 0 4.62 0 7 0 C7 2.97 7 5.94 7 9 C6.01 8.67 5.02 8.34 4 8 C4 6.35 4 4.7 4 3 C2.68 3 1.36 3 0 3 C0 2.01 0 1.02 0 0 Z " fill="#095084" transform="translate(265,262)"/>
<path d="M0 0 C-0.33 1.32 -0.66 2.64 -1 4 C-1.721875 3.814375 -2.44375 3.62875 -3.1875 3.4375 C-6.12826973 2.98004693 -8.14103058 3.26483643 -11 4 C-8.36255031 -1.84006718 -6.04918208 -1.00819701 0 0 Z " fill="#055184" transform="translate(80,254)"/>
<path d="M0 0 C1.485 0.99 1.485 0.99 3 2 C6.14221967 1.68493373 6.14221967 1.68493373 9 1 C9 2.32 9 3.64 9 5 C6.21136993 6.39431504 4.07921132 6.25660094 1 6 C0.34 5.01 -0.32 4.02 -1 3 C-0.67 2.01 -0.34 1.02 0 0 Z " fill="#045085" transform="translate(71,267)"/>
<path d="M0 0 C0 0.33 0 0.66 0 1 C-1.98 1 -3.96 1 -6 1 C-7.0541518 4.16245541 -7.31275672 6.86948218 -7.5625 10.1875 C-7.64628906 11.27417969 -7.73007812 12.36085938 -7.81640625 13.48046875 C-7.87699219 14.31191406 -7.93757813 15.14335937 -8 16 C-8.33 16 -8.66 16 -9 16 C-9 11.05 -9 6.1 -9 1 C-10.32 0.67 -11.64 0.34 -13 0 C-8.38926889 -1.29676812 -4.66159911 -0.71109139 0 0 Z " fill="#5288A9" transform="translate(47,256)"/>
<path d="M0 0 C2.64 0 5.28 0 8 0 C8 1.32 8 2.64 8 4 C5.03 4 2.06 4 -1 4 C-0.67 2.68 -0.34 1.36 0 0 Z " fill="#2F6E98" transform="translate(139,269)"/>
<path d="M0 0 C0.99 0.66 1.98 1.32 3 2 C2.01 4.97 1.02 7.94 0 11 C-0.99 10.67 -1.98 10.34 -3 10 C-2.01 6.7 -1.02 3.4 0 0 Z " fill="#185D8C" transform="translate(172,254)"/>
<path d="M0 0 C1.828125 0.18359375 1.828125 0.18359375 4 1 C5.484375 3.28515625 5.484375 3.28515625 6.75 6.0625 C7.17796875 6.98160156 7.6059375 7.90070313 8.046875 8.84765625 C8.36140625 9.55792969 8.6759375 10.26820313 9 11 C8.34 11 7.68 11 7 11 C6.34 10.01 5.68 9.02 5 8 C4.34 8 3.68 8 3 8 C1.875 4.25 1.875 4.25 3 2 C2.01 2 1.02 2 0 2 C0 1.34 0 0.68 0 0 Z " fill="#1C618F" transform="translate(241,253)"/>
<path d="M0 0 C0.66 1.32 1.32 2.64 2 4 C2.66 4 3.32 4 4 4 C4.66 5.65 5.32 7.3 6 9 C5.01 9.66 4.02 10.32 3 11 C2.30034557 9.73581754 1.61565237 8.46334598 0.9375 7.1875 C0.55464844 6.47980469 0.17179688 5.77210938 -0.22265625 5.04296875 C-1 3 -1 3 0 0 Z " fill="#085486" transform="translate(246,260)"/>
<path d="M0 0 C1.98 0.495 1.98 0.495 4 1 C3.34 3.97 2.68 6.94 2 10 C1.34 10 0.68 10 0 10 C-1.125 2.25 -1.125 2.25 0 0 Z " fill="#095285" transform="translate(259,256)"/>
<path d="M0 0 C2.75 -0.25 2.75 -0.25 6 0 C8.375 2 8.375 2 10 4 C9.67 4.66 9.34 5.32 9 6 C8.01 6 7.02 6 6 6 C6 5.34 6 4.68 6 4 C5.34 4 4.68 4 4 4 C3.67 3.34 3.34 2.68 3 2 C2.01 1.34 1.02 0.68 0 0 Z " fill="#1C618E" transform="translate(105,253)"/>
<path d="M0 0 C2.95183101 2.95183101 3.08663988 5.95511947 4 10 C2.68 10 1.36 10 0 10 C0 6.7 0 3.4 0 0 Z " fill="#1D628F" transform="translate(179,263)"/>
<path d="M0 0 C4.875 2.75 4.875 2.75 6 5 C5.01 5.495 5.01 5.495 4 6 C3.01 7.485 3.01 7.485 2 9 C2 7.68 2 6.36 2 5 C1.34 5 0.68 5 0 5 C0 3.35 0 1.7 0 0 Z " fill="#1E6390" transform="translate(213,260)"/>
<path d="M0 0 C0.4125 0.45375 0.825 0.9075 1.25 1.375 C3.06408095 3.05950374 4.75285627 3.99265971 7 5 C4.69 5.33 2.38 5.66 0 6 C-1.125 2.25 -1.125 2.25 0 0 Z " fill="#045084" transform="translate(121,266)"/>
<path d="M0 0 C0.33 0 0.66 0 1 0 C1 1.65 1 3.3 1 5 C1.99 5.33 2.98 5.66 4 6 C3.34 6.66 2.68 7.32 2 8 C2 7.34 2 6.68 2 6 C1.34 6 0.68 6 0 6 C-0.33 6.66 -0.66 7.32 -1 8 C-1.625 5.6875 -1.625 5.6875 -2 3 C-1.34 2.01 -0.68 1.02 0 0 Z " fill="#236490" transform="translate(56,254)"/>
<path d="M0 0 C0.99 0.33 1.98 0.66 3 1 C3 1.66 3 2.32 3 3 C4.65 3.33 6.3 3.66 8 4 C8 4.33 8 4.66 8 5 C5.125 5.125 5.125 5.125 2 5 C1.34 4.34 0.68 3.68 0 3 C0 2.01 0 1.02 0 0 Z " fill="#1B608D" transform="translate(54,268)"/>
<path d="M0 0 C2 2 2 2 2 6 C2.99 6.33 3.98 6.66 5 7 C3.02 7.99 3.02 7.99 1 9 C0.67 6.03 0.34 3.06 0 0 Z " fill="#296B96" transform="translate(257,260)"/>
<path d="M0 0 C2.35953094 2.35953094 2.49141413 3.77895617 3 7 C1.35 7 -0.3 7 -2 7 C-1.34 4.69 -0.68 2.38 0 0 Z " fill="#ECF3F6" transform="translate(174,258)"/>
<path d="M0 0 C2.97 0.495 2.97 0.495 6 1 C5.34 2.32 4.68 3.64 4 5 C2.68 4.34 1.36 3.68 0 3 C0 2.01 0 1.02 0 0 Z " fill="#0F588A" transform="translate(56,260)"/>
<path d="M0 0 C0.33 1.32 0.66 2.64 1 4 C-1.70879335 5.35439668 -4.00933268 5.06501451 -7 5 C-6.401875 4.731875 -5.80375 4.46375 -5.1875 4.1875 C-3.02775192 3.01506533 -1.64209744 1.80630718 0 0 Z " fill="#1E5E8A" transform="translate(79,268)"/>
<path d="M0 0 C1.98 0.495 1.98 0.495 4 1 C4 2.65 4 4.3 4 6 C2.35 5.01 0.7 4.02 -1 3 C-0.67 2.01 -0.34 1.02 0 0 Z " fill="#1F618F" transform="translate(156,259)"/>
<path d="M0 0 C2.31 0.33 4.62 0.66 7 1 C6.67 2.32 6.34 3.64 6 5 C5.34 4.67 4.68 4.34 4 4 C4 3.34 4 2.68 4 2 C2.68 1.34 1.36 0.68 0 0 Z " fill="#195A88" transform="translate(73,253)"/>
</svg>
