<?xml version="1.0" encoding="UTF-8"?>
<svg version="1.1" xmlns="http://www.w3.org/2000/svg" width="1200" height="1200">
<path d="M0 0 C1.13597185 -0.00865438 2.2719437 -0.01730876 3.44233894 -0.02622539 C7.2574583 -0.04785544 11.07112606 -0.02649887 14.88623047 -0.00532532 C17.61776378 -0.00850907 20.34924103 -0.02065121 23.08074951 -0.03231812 C29.73476522 -0.0551518 36.38836104 -0.04566224 43.04236841 -0.02481725 C48.44984642 -0.00853741 53.85720978 -0.00433264 59.26470947 -0.00878334 C60.03413883 -0.00941402 60.80356819 -0.01004469 61.5963136 -0.01069448 C63.1593633 -0.01204052 64.72241297 -0.0134201 66.28546262 -0.01483283 C80.9444676 -0.0267717 95.60324232 -0.00269829 110.26219487 0.03418525 C122.84203311 0.06507855 135.42160622 0.06744956 148.00146484 0.04838562 C162.60774552 0.02627628 177.21387755 0.02012676 191.82016563 0.04070824 C193.37748589 0.0428712 194.93480617 0.04502029 196.49212646 0.04715538 C197.6414927 0.04875493 197.6414927 0.04875493 198.81407845 0.05038679 C204.21545554 0.05685801 209.61675617 0.05208853 215.01812744 0.04313087 C221.60010078 0.03259794 228.18176316 0.0400871 234.76367903 0.07058666 C238.12249961 0.08572186 241.48042018 0.09018973 244.83931732 0.07839584 C248.47900501 0.0670174 252.1172626 0.08627431 255.75683594 0.11352539 C257.35239917 0.09781816 257.35239917 0.09781816 258.980196 0.08179361 C266.11480159 0.18169166 266.11480159 0.18169166 270.01101685 3.10777569 C272.61555655 6.80020718 273.00674369 9.46083547 273.03955078 13.86576843 C273.04915833 14.90727554 273.05876587 15.94878265 273.06866455 17.02185059 C273.07503937 18.70935677 273.07503937 18.70935677 273.08154297 20.43095398 C273.08724304 21.58886948 273.09294312 22.74678497 273.09881592 23.93978882 C273.10826792 26.39183131 273.11480069 28.84388653 273.11865234 31.29594421 C273.12835239 35.04234559 273.15937249 38.78819714 273.19091797 42.5344696 C273.19744863 44.9166278 273.20269885 47.29878993 273.20654297 49.68095398 C273.21888977 50.79988541 273.23123657 51.91881683 273.24395752 53.07165527 C273.22490647 59.74319949 272.89324763 64.50912605 268.16259766 69.60258484 C264.93420692 71.23161783 261.86881527 71.19599204 258.33154297 71.19657898 C257.60151062 71.20978683 256.87147827 71.22299469 256.11932373 71.23660278 C253.78898363 71.27740223 251.45903347 71.29911841 249.12841797 71.31767273 C246.81220827 71.34159852 244.49635833 71.36999496 242.18035889 71.40945435 C240.74237543 71.4334602 239.30420473 71.4486026 237.86602783 71.45306396 C228.70584781 71.5929209 221.1760612 74.21776505 213.87841797 79.75517273 C207.55849258 86.28708723 204.53620618 93.23402731 204.53852844 102.25674438 C204.5540123 103.18306168 204.56949615 104.10937897 204.58544922 105.06376648 C204.58969406 106.03048782 204.5939389 106.99720917 204.59831238 107.9932251 C204.61501275 111.05999922 204.65264898 114.12609953 204.69091797 117.19267273 C204.70597597 119.28055382 204.71966242 121.36844528 204.73193359 123.4563446 C204.76488798 128.55621088 204.81661046 133.65557783 204.87841797 138.75517273 C205.44109375 138.3633783 206.00376953 137.97158386 206.58349609 137.56791687 C211.3643951 134.29986532 216.04866913 131.45532803 221.37841797 129.19267273 C222.05130859 128.90311707 222.72419922 128.6135614 223.41748047 128.31523132 C228.48179214 126.20004026 233.61978723 124.44576818 238.87841797 122.88017273 C239.90032227 122.57551086 239.90032227 122.57551086 240.94287109 122.26469421 C247.13989197 120.51477788 253.20065406 119.69746172 259.63232422 119.73222351 C260.430979 119.7355368 261.22963379 119.7388501 262.05249023 119.74226379 C262.65504639 119.74652374 263.25760254 119.75078369 263.87841797 119.75517273 C263.92508701 139.66934337 263.96038176 159.58350296 263.98204231 179.4977169 C263.99236588 188.74371033 264.00644678 197.98966983 264.02929688 207.23564148 C264.04919776 215.29207908 264.06212654 223.34849211 264.06659496 231.4049536 C264.06920795 235.67291213 264.0753719 239.94080037 264.08987808 244.20873642 C264.10340992 248.22236275 264.10764958 252.23588954 264.10463333 256.24953651 C264.10518547 257.72580442 264.10918906 259.20207551 264.11682892 260.67832375 C264.12672087 262.68758894 264.12320893 264.69690703 264.118927 266.70619202 C264.12169238 268.39583856 264.12169238 268.39583856 264.12451363 270.11961937 C263.87841797 272.75517273 263.87841797 272.75517273 261.87841797 274.75517273 C259.26674772 274.94345065 256.76342435 275.01070172 254.15185547 274.98564148 C253.37137848 274.98518326 252.59090149 274.98472504 251.78677368 274.98425293 C250.12394707 274.98122502 248.46112343 274.97332275 246.79833984 274.96098328 C244.31190346 274.94309353 241.82584851 274.94047125 239.33935547 274.9407196 C213.27883515 274.88371649 213.27883515 274.88371649 203.87841797 272.75517273 C204.20841797 275.39517273 204.53841797 278.03517273 204.87841797 280.75517273 C215.33189523 281.79471717 225.76309223 282.06411859 236.25683594 282.30741882 C250.49147942 282.64523205 250.49147942 282.64523205 256.74560547 283.09892273 C257.48665527 283.15241882 258.22770508 283.20591492 258.99121094 283.2610321 C261.42412637 283.89805938 262.29196967 284.82105464 263.87841797 286.75517273 C264.16965268 289.79745627 264.27766874 292.63420255 264.25073242 295.67704773 C264.25438309 296.58950256 264.25803375 297.5019574 264.26179504 298.44206238 C264.26991218 301.4632875 264.25628067 304.48397824 264.24169922 307.50517273 C264.24118075 309.60120137 264.24169793 311.69723051 264.24320984 313.79325867 C264.24312006 318.18818918 264.23267963 322.58293647 264.21459961 326.97782898 C264.19191235 332.61729119 264.1913678 338.25648555 264.19811726 343.89598083 C264.20145539 348.22476084 264.19483007 352.55347954 264.18498802 356.88224792 C264.18113305 358.96191589 264.17998903 361.04159067 264.18157387 363.1212616 C264.18194386 366.02540631 264.16934286 368.9292049 264.15307617 371.83329773 C264.1567923 373.12850342 264.1567923 373.12850342 264.1605835 374.44987488 C264.10716261 380.41205577 264.10716261 380.41205577 261.87841797 383.75517273 C257.13088788 385.31020796 251.78540379 385.08538123 246.82763672 385.29032898 C245.85486282 385.33330612 244.88208893 385.37628326 243.87983704 385.42056274 C241.82483741 385.51057738 239.76975485 385.59871546 237.71459961 385.68510437 C234.58736165 385.81676989 231.46043128 385.95441135 228.33349609 386.09306335 C226.3315583 386.18000569 224.32960559 386.26660536 222.32763672 386.35282898 C220.93661995 386.41374474 220.93661995 386.41374474 219.51750183 386.47589111 C214.29884269 386.69317302 209.1015962 386.7944161 203.87841797 386.75517273 C203.87841797 389.39517273 203.87841797 392.03517273 203.87841797 394.75517273 C204.76654175 394.6566803 204.76654175 394.6566803 205.67260742 394.55619812 C220.60548799 392.97229757 235.68337761 392.6783872 250.69091797 392.50517273 C252.15791138 392.47314758 252.15791138 392.47314758 253.65454102 392.44047546 C254.55986572 392.43604431 255.46519043 392.43161316 256.39794922 392.42704773 C257.19305908 392.41770203 257.98816895 392.40835632 258.80737305 392.39872742 C261.5114945 392.86413085 262.22519243 393.57674672 263.87841797 395.75517273 C264.2587347 398.34642696 264.2587347 398.34642696 264.26609802 401.51785278 C264.28095497 403.32020386 264.28095497 403.32020386 264.29611206 405.15896606 C264.29187382 406.49238688 264.28731594 407.82580671 264.2824707 409.15922546 C264.28817229 410.56203252 264.29513573 411.96483494 264.30326843 413.36763 C264.32123905 417.17964951 264.32002415 420.99143932 264.31432605 424.80348849 C264.31123965 427.98449908 264.31732054 431.16546519 264.32336479 434.34646946 C264.33742136 441.85033577 264.33583951 449.35408827 264.32446289 456.85795593 C264.31298148 464.60212117 264.32705494 472.3459401 264.35385936 480.0900597 C264.37600381 486.73643703 264.38265657 493.38270556 264.37678295 500.02911717 C264.37340901 503.9998062 264.37585714 507.97027326 264.39303398 511.94093132 C264.40848116 515.6748708 264.40457299 519.4082967 264.38572884 523.14221573 C264.380275 525.16676882 264.39457409 527.19134485 264.40942383 529.21585083 C264.39958969 530.42023804 264.38975555 531.62462524 264.37962341 532.86550903 C264.37941413 533.91245658 264.37920485 534.95940413 264.37898922 536.03807735 C263.74966807 539.45402578 262.58878351 540.6480322 259.87841797 542.75517273 C247.85230849 544.26551615 233.70334403 538.54361061 222.87841797 533.75517273 C237.08568211 554.67641823 259.46541979 567.9404452 283.87841797 573.50517273 C311.79881565 578.80935719 340.82662898 573.83569947 364.87841797 558.75517273 C369.01882406 555.7977398 373.01214989 552.7236412 376.51904297 549.02470398 C377.87841797 547.75517273 377.87841797 547.75517273 379.87841797 547.75517273 C380.14396484 547.17251648 380.40951172 546.58986023 380.68310547 545.98954773 C381.91144793 543.69343044 383.28156736 541.95161255 385.00341797 540.00517273 C385.54224609 539.39157898 386.08107422 538.77798523 386.63623047 538.14579773 C387.04615234 537.68689148 387.45607422 537.22798523 387.87841797 536.75517273 C386.70037598 536.93169373 385.52233398 537.10821472 384.30859375 537.29008484 C379.84788068 537.95623337 375.38561286 538.61144484 370.92285156 539.26371765 C369.00836337 539.54501517 367.09428193 539.82909818 365.18066406 540.11625671 C355.34994504 541.58957445 345.54638251 542.94352863 335.62060547 543.57157898 C334.86425812 543.62434494 334.10791077 543.6771109 333.3286438 543.73147583 C331.51429005 543.82493261 329.69460481 543.80076904 327.87841797 543.75517273 C327.21841797 543.09517273 326.55841797 542.43517273 325.87841797 541.75517273 C325.89404297 538.86454773 325.89404297 538.86454773 326.87841797 535.75517273 C329.36279297 533.77079773 329.36279297 533.77079773 332.62841797 532.00517273 C333.82201516 531.32638265 335.01202955 530.64126099 336.19873047 529.95048523 C337.1157373 529.41729675 337.1157373 529.41729675 338.05126953 528.87333679 C377.55385599 504.69885176 402.97505093 458.10884729 415.53295898 414.78788757 C415.93019165 413.45491638 415.93019165 413.45491638 416.33544922 412.09501648 C416.67539917 410.90960266 416.67539917 410.90960266 417.0222168 409.70024109 C417.87841797 407.75517273 417.87841797 407.75517273 420.87841797 405.75517273 C423.42285156 405.92485046 423.42285156 405.92485046 426.40185547 406.50126648 C428.01398926 406.804599 428.01398926 406.804599 429.65869141 407.11405945 C430.72120117 407.32562683 431.78371094 407.53719421 432.87841797 407.75517273 C433.76303711 407.9190448 434.64765625 408.08291687 435.55908203 408.25175476 C474.94553114 415.61688477 514.35483224 427.21411557 550.87841797 443.75517273 C551.86551758 444.20199402 552.85261719 444.64881531 553.86962891 445.10917664 C556.81751743 446.45495183 559.75654494 447.81769783 562.69091797 449.19267273 C563.57577881 449.60597839 564.46063965 450.01928406 565.37231445 450.44511414 C566.18514893 450.83489441 566.9979834 451.22467468 567.83544922 451.62626648 C568.54677002 451.96585388 569.25809082 452.30544128 569.9909668 452.65531921 C571.99794469 453.82482321 573.40054587 454.96419702 574.87841797 456.75517273 C574.94482422 459.14970398 574.94482422 459.14970398 573.87841797 461.75517273 C571.87439735 463.54824381 570.03572239 464.97087839 567.81591797 466.44267273 C567.18959473 466.87201111 566.56327148 467.30134949 565.91796875 467.74369812 C563.91780539 469.10164125 561.90170689 470.43197198 559.87841797 471.75517273 C559.24919434 472.16960632 558.6199707 472.58403992 557.97167969 473.0110321 C534.55024328 488.32902899 509.51726808 500.13248475 483.50341797 510.31767273 C482.84538177 510.57765045 482.18734558 510.83762817 481.5093689 511.10548401 C474.07811737 514.02917306 466.81218357 516.58721687 458.87841797 517.75517273 C458.7457251 518.49976746 458.61303223 519.24436218 458.47631836 520.01152039 C457.95100142 522.42210096 457.30263416 524.40804681 456.31201172 526.65361023 C455.99586914 527.37234314 455.67972656 528.09107605 455.35400391 528.83158875 C455.01143555 529.59012146 454.66886719 530.34865417 454.31591797 531.13017273 C453.9565918 531.92673279 453.59726562 532.72329285 453.22705078 533.54399109 C431.3820157 581.39797295 392.03392257 618.38360132 342.89794922 637.31767273 C321.77400329 645.00102653 300.36288228 649.34454566 277.87841797 649.75517273 C276.69376953 649.7835321 275.50912109 649.81189148 274.28857422 649.84111023 C270.81413114 649.88165216 267.35220902 649.8327787 263.87841797 649.75517273 C263.18296875 649.74792175 262.48751953 649.74067078 261.77099609 649.73320007 C205.02067321 649.00720939 152.58577586 623.28018997 112.87841797 583.75517273 C112.06099121 582.94378845 112.06099121 582.94378845 111.22705078 582.11601257 C95.35340199 566.15787661 83.46741483 546.97631275 73.31591797 527.00517273 C72.98100342 526.34952332 72.64608887 525.6938739 72.30102539 525.01835632 C70.62084753 521.62258183 69.40237524 518.51618106 68.87841797 514.75517273 C67.63189453 514.51669617 66.38537109 514.2782196 65.10107422 514.03251648 C59.25841479 512.72769006 53.84791407 510.57504402 48.31591797 508.31767273 C47.22819092 507.87665222 46.14046387 507.43563171 45.01977539 506.98124695 C-28.58675739 476.82482202 -28.58675739 476.82482202 -36.12158203 461.75517273 C-36.49658203 458.88017273 -36.49658203 458.88017273 -36.12158203 455.75517273 C-31.99376016 451.69406313 -26.86640905 449.48628267 -21.68408203 447.06767273 C-20.75015625 446.63051941 -19.81623047 446.19336609 -18.85400391 445.7429657 C-15.95024575 444.39757072 -13.03862257 443.07150159 -10.12158203 441.75517273 C-9.28481934 441.37699402 -8.44805664 440.99881531 -7.5859375 440.60917664 C5.14700846 434.94300293 18.26610971 430.50632135 31.50341797 426.19267273 C32.33421875 425.92070068 33.16501953 425.64872864 34.02099609 425.36851501 C36.40077652 424.5926251 38.78337341 423.82624573 41.16748047 423.06376648 C41.8863443 422.8298671 42.60520813 422.59596771 43.34585571 422.35498047 C46.72912589 421.28713185 49.28819214 420.75517273 52.87841797 420.75517273 C52.54841797 418.11517273 52.21841797 415.47517273 51.87841797 412.75517273 C21.44868581 420.57883772 -8.36669916 431.78068269 -36.24755859 446.27812195 C-44.59449209 450.61820068 -44.59449209 450.61820068 -49.12158203 451.75517273 C-53.68932306 450.07232077 -56.81400302 446.16255748 -60.14501953 442.73173523 C-62.2265884 440.58387872 -62.2265884 440.58387872 -65.18408203 438.25517273 C-68.92843877 435.06848615 -71.96138125 431.50986673 -75.12158203 427.75517273 C-75.88599609 426.87861023 -76.65041016 426.00204773 -77.43798828 425.09892273 C-105.2270283 392.74360853 -117.07820845 355.56964681 -113.91943359 313.03300476 C-113.39449485 308.48386576 -112.38488731 304.15052166 -111.12158203 299.75517273 C-110.92290527 299.05746765 -110.72422852 298.35976257 -110.51953125 297.64091492 C-100.9075801 264.65068257 -80.63342147 237.99727548 -55.86767578 214.66142273 C-53.31391292 213.33597981 -51.87237026 214.01951963 -49.12158203 214.75517273 C-47.24146769 215.62987281 -45.39263509 216.57338782 -43.57080078 217.56376648 C-42.49233887 218.14102478 -41.41387695 218.71828308 -40.30273438 219.31303406 C-39.1498291 219.93331482 -37.99692383 220.55359558 -36.80908203 221.19267273 C-8.32226722 236.27882269 22.04392198 246.58918282 52.87841797 255.75517273 C52.54841797 253.11517273 52.21841797 250.47517273 51.87841797 247.75517273 C50.79431641 247.44966492 49.71021484 247.1441571 48.59326172 246.82939148 C21.36164209 238.98940376 -5.56470261 229.37767115 -30.80908203 216.44267273 C-31.61829102 216.03395935 -32.4275 215.62524597 -33.26123047 215.20414734 C-34.00276367 214.81235291 -34.74429688 214.42055847 -35.50830078 214.01689148 C-36.16016357 213.67617615 -36.81202637 213.33546082 -37.48364258 212.98442078 C-39.51170153 211.46239412 -40.2224529 210.10836448 -41.12158203 207.75517273 C-41.02604395 204.36357072 -40.4915015 203.12157585 -38.06689453 200.72001648 C-10.18929896 180.68058144 19.98537517 165.31737506 51.87841797 152.75517273 C51.9548666 145.39033198 52.00718457 138.02559467 52.04321289 130.66044617 C52.05824231 128.15812862 52.07867146 125.65583716 52.10473633 123.15361023 C52.14137675 119.54416948 52.15820343 115.9350789 52.17138672 112.32548523 C52.18687057 111.21778778 52.20235443 110.11009033 52.2183075 108.96882629 C52.22047809 98.81149823 50.26270742 89.86249485 43.87841797 81.75517273 C35.62763061 73.6877362 27.32603683 71.63119311 16.03076172 71.61454773 C14.52358498 71.59623395 13.01642305 71.57666498 11.50927734 71.55595398 C9.15672315 71.52693136 6.80513792 71.5051705 4.45239258 71.50468445 C2.16516184 71.50134577 -0.11988768 71.46680512 -2.40673828 71.42704773 C-3.10581802 71.43411743 -3.80489777 71.44118713 -4.52516174 71.44847107 C-8.41609509 71.35183727 -10.00303686 70.85330779 -13.04125977 68.33818054 C-15.96351265 64.70979943 -16.25485679 62.97894628 -16.31445312 58.39091492 C-16.33051605 57.26924927 -16.34657898 56.14758362 -16.36312866 54.9919281 C-16.40752673 49.85492253 -16.44909116 44.71800622 -16.47167969 39.58085632 C-16.48500253 36.87055077 -16.51282214 34.16100111 -16.55371094 31.45097351 C-16.61260768 27.54718617 -16.63035289 23.64376414 -16.64501953 19.73954773 C-16.6676889 18.52998413 -16.69035828 17.32042053 -16.7137146 16.07420349 C-16.71086456 14.9399292 -16.70801453 13.80565491 -16.70507812 12.63700867 C-16.71316498 11.64376587 -16.72125183 10.65052307 -16.72958374 9.62718201 C-14.70182857 0.04870293 -8.41326575 -0.11125675 0 0 Z " fill="#0972B9" transform="translate(311.12158203125,109.24482727050781)"/>
<path d="M0 0 C2.5637207 1.83496094 2.5637207 1.83496094 4.92578125 4.234375 C5.80000732 5.11198486 6.6742334 5.98959473 7.57495117 6.89379883 C8.47834229 7.83634521 9.3817334 8.7788916 10.3125 9.75 C11.25788291 10.71997326 12.2036039 11.68961712 13.1496582 12.65893555 C19.67340912 19.39395799 25.76007011 26.20282992 31 34 C31.40718262 34.60585938 31.81436523 35.21171875 32.23388672 35.8359375 C52.77644285 66.73119745 63.59473808 101.62046158 56.8684082 139.00512695 C56.07334606 142.72315381 55.10292733 146.36218641 54 150 C53.78569336 150.71897461 53.57138672 151.43794922 53.35058594 152.17871094 C44.28283779 181.75778457 26.00646749 204.97667661 4.5 226.625 C3.60039551 227.53173462 3.60039551 227.53173462 2.68261719 228.45678711 C2.11704102 229.02018799 1.55146484 229.58358887 0.96875 230.1640625 C0.46794922 230.66373535 -0.03285156 231.1634082 -0.54882812 231.67822266 C-3.08484579 233.98811493 -4.74048178 234.96764032 -8.1640625 235.39453125 C-13.04998604 234.89200755 -16.17690224 233.1149194 -20.375 230.6875 C-37.778598 221.09786829 -56.19695771 213.39516733 -75 207 C-75.88961426 206.69529785 -76.77922852 206.3905957 -77.69580078 206.07666016 C-99.10669218 198.81205332 -121.01778729 192.68995067 -143.14453125 188.015625 C-143.88306839 187.85896866 -144.62160553 187.70231232 -145.38252258 187.54090881 C-148.91653165 186.7958364 -152.4531489 186.07272259 -155.99829102 185.38256836 C-157.88245728 184.99790405 -157.88245728 184.99790405 -159.8046875 184.60546875 C-161.45960205 184.28292114 -161.45960205 184.28292114 -163.14794922 183.95385742 C-166.39270744 182.8686605 -167.86406265 181.64129131 -170 179 C-171.67242189 171.82307142 -169.41628894 163.41191864 -168.15600586 156.25366211 C-165.85390345 143.01552497 -165.76375355 129.77269807 -165.75 116.375 C-165.74699387 114.95118011 -165.74699387 114.95118011 -165.743927 113.49859619 C-165.7368876 99.86313356 -166.30742475 86.57112547 -168.24609375 73.0546875 C-168.36839355 72.1997168 -168.49069336 71.34474609 -168.61669922 70.46386719 C-168.87279541 68.81767435 -169.16642072 67.17689651 -169.49658203 65.54394531 C-169.63306152 64.76889648 -169.76954102 63.99384766 -169.91015625 63.1953125 C-170.11523804 62.19395264 -170.11523804 62.19395264 -170.32446289 61.17236328 C-169.78872716 57.58547346 -167.69568602 55.25469073 -165 53 C-162.37140592 52.02761418 -160.28722366 51.44114717 -157.578125 50.98046875 C-156.85394882 50.83613403 -156.12977264 50.69179932 -155.38365173 50.54309082 C-153.82387959 50.23368307 -152.26206664 49.93442209 -150.69857788 49.64437866 C-146.49739119 48.86048179 -142.31434294 47.98841645 -138.12890625 47.125 C-137.27537064 46.95062912 -136.42183502 46.77625824 -135.54243469 46.59660339 C-94.6547142 38.15903844 -50.92854195 24.38173163 -14.84765625 3.14453125 C-13.88730469 2.58121094 -12.92695312 2.01789063 -11.9375 1.4375 C-10.74447266 0.69306641 -10.74447266 0.69306641 -9.52734375 -0.06640625 C-5.98077331 -1.37649951 -3.66622644 -0.82667889 0 0 Z " fill="#0771B8" transform="translate(904,325)"/>
<path d="M0 0 C1.15980232 -0.00657338 1.15980232 -0.00657338 2.34303498 -0.01327956 C4.95397311 -0.02671659 7.56487745 -0.03285738 10.17584229 -0.03897095 C12.03977615 -0.0468681 13.90370847 -0.0551368 15.76763916 -0.06375122 C21.9066216 -0.0900176 28.04561103 -0.10528411 34.18463135 -0.11953735 C36.29476171 -0.12489526 38.40489202 -0.13027276 40.51502228 -0.13566971 C49.29070824 -0.1573058 58.06639233 -0.17604355 66.84209824 -0.1872921 C79.43457889 -0.20353677 92.0267512 -0.23671888 104.61911559 -0.29369295 C113.46415141 -0.33235252 122.30910462 -0.35192011 131.15422273 -0.35721266 C136.44127038 -0.36087178 141.72798953 -0.37295231 147.01494598 -0.4053154 C151.98902878 -0.43532567 156.96258312 -0.44173303 161.93673706 -0.42993164 C163.76329769 -0.42971031 165.58988234 -0.4380644 167.41635895 -0.45558548 C169.90907219 -0.47819746 172.3998563 -0.47002065 174.89257812 -0.45410156 C175.9786289 -0.47492469 175.9786289 -0.47492469 177.08662009 -0.49616849 C180.94914013 -0.43532921 182.57580914 0.05391205 185.62573624 2.50440025 C188.5162935 6.19611244 188.82824975 8.82174998 188.86138916 13.37216187 C188.8709967 14.43691742 188.88060425 15.50167297 188.89050293 16.59869385 C188.89687775 18.32371628 188.89687775 18.32371628 188.90338135 20.08358765 C188.90908142 21.26607086 188.91478149 22.44855408 188.9206543 23.66687012 C188.93010599 26.17018742 188.93663895 28.67351718 188.94049072 31.17684937 C188.95019996 35.00665976 188.98122415 38.83593441 189.01275635 42.6656189 C189.01928603 45.09660529 189.02453664 47.52759552 189.02838135 49.95858765 C189.04072815 51.10455414 189.05307495 52.25052063 189.0657959 53.43121338 C189.0627948 54.50227325 189.0597937 55.57333313 189.05670166 56.67684937 C189.0621701 58.08557816 189.0621701 58.08557816 189.06774902 59.52276611 C188.51696261 63.46622666 186.70972011 66.1037878 183.98443604 68.93881226 C180.76459462 70.65163299 177.71415291 70.59471555 174.15338135 70.5953064 C173.423349 70.60851425 172.69331665 70.62172211 171.94116211 70.6353302 C169.61082201 70.67612965 167.28087185 70.69784583 164.95025635 70.71640015 C162.63404665 70.74032594 160.31819671 70.76872237 158.00219727 70.80818176 C156.56421381 70.83218762 155.12604311 70.84733001 153.68786621 70.85179138 C144.87475131 70.98634936 136.15049287 73.10314625 129.5244751 79.1343689 C120.57995921 88.63485104 119.5373371 98.41303963 119.6026001 111.02108765 C119.60401505 112.05581207 119.60542999 113.0905365 119.60688782 114.15661621 C119.61246596 117.44740746 119.62501447 120.7381296 119.63775635 124.02890015 C119.64277417 126.26587833 119.64733659 128.50285758 119.65142822 130.73983765 C119.66242823 136.21121522 119.67914458 141.68255274 119.70025635 147.15390015 C120.39462799 147.40913452 121.08899963 147.6643689 121.80441284 147.92733765 C142.27016593 155.45732999 162.21852578 163.38388694 181.36529541 173.87460327 C183.75009546 175.1812064 186.14278842 176.47251479 188.53619385 177.76327515 C196.60506472 182.14502967 204.31356434 186.6797315 211.70025635 192.15390015 C212.92380676 193.02869267 214.14921906 193.9008843 215.3760376 194.77108765 C226.61687855 202.74627536 226.61687855 202.74627536 227.26275635 205.90390015 C226.70025635 209.15390015 226.70025635 209.15390015 223.45025635 211.46640015 C217.84276536 214.76339429 211.99921363 217.59166907 206.13775635 220.40390015 C205.54656006 220.68769531 204.95536377 220.97149048 204.34625244 221.2638855 C192.6888036 226.84030786 180.86330935 231.78365182 168.70025635 236.15390015 C167.68624756 236.51934937 166.67223877 236.88479858 165.62750244 237.26132202 C141.31425418 245.91703342 116.37851042 252.48160236 91.15048218 257.85891724 C89.65388157 258.17803863 88.15814824 258.50125749 86.6633606 258.82876587 C84.58875613 259.27979612 82.5109922 259.71032823 80.4307251 260.1343689 C79.24889648 260.38082153 78.06706787 260.62727417 76.84942627 260.88119507 C73.40557159 261.17941863 71.67224132 260.88914191 68.70025635 259.15390015 C67.43229228 256.4418659 66.55318659 254.00195986 65.70025635 251.15390015 C65.03066112 249.09977018 64.35858817 247.04644696 63.68463135 244.9937439 C63.32449951 243.87822144 62.96436768 242.76269897 62.59332275 241.6133728 C59.19176997 231.13263799 55.79427305 220.89487341 50.70172119 211.0977478 C49.54048961 208.84379221 48.42896984 206.56757562 47.3135376 204.2906189 C38.65811226 186.90552814 28.17607766 171.16680129 14.70025635 157.15390015 C13.54797334 155.78430061 12.40170575 154.40960768 11.26275635 153.02890015 C3.06545506 143.62498676 -8.12499967 135.75222001 -18.5848999 129.0484314 C-21.29974365 127.15390015 -21.29974365 127.15390015 -22.42474365 124.65390015 C-22.29974365 122.15390015 -22.29974365 122.15390015 -20.63592529 119.99423218 C-17.67757247 117.66378348 -16.4904355 117.79606761 -12.7958374 118.20858765 C-11.67942871 118.32589233 -10.56302002 118.44319702 -9.41278076 118.5640564 C-7.59338989 118.79415405 -7.59338989 118.79415405 -5.73724365 119.02890015 C-4.4746875 119.17456421 -3.21213135 119.32022827 -1.91131592 119.4703064 C8.52703237 120.71332797 18.90182448 122.38785582 29.26275635 124.15390015 C30.36504074 124.34142853 30.36504074 124.34142853 31.48959351 124.53274536 C40.32261918 126.05069556 49.03903675 127.82358275 57.70025635 130.15390015 C57.65572862 125.35181525 57.58551279 120.55099883 57.49273682 115.74960327 C57.46472611 114.1204749 57.44341384 112.49121565 57.42926025 110.86190796 C57.32303108 99.31833734 56.92038152 88.68702437 48.6026001 79.75546265 C40.35682923 72.81343789 32.19018567 71.02837392 21.66900635 71.01327515 C20.12081443 70.99495751 18.5726369 70.97538817 17.0244751 70.9546814 C14.60837119 70.92569012 12.19320595 70.90389873 9.7769165 70.90341187 C7.42761976 70.90006733 5.08043432 70.86548647 2.73150635 70.82577515 C2.01571411 70.83284485 1.29992187 70.83991455 0.56243896 70.84719849 C-5.12528307 70.71007805 -7.48382433 69.09643464 -11.29974365 65.15390015 C-12.30977396 62.12380923 -12.44396011 60.03131716 -12.47674561 56.85971069 C-12.48958084 55.77816208 -12.50241608 54.69661346 -12.51564026 53.58229065 C-12.52672066 51.82916313 -12.52672066 51.82916313 -12.5380249 50.0406189 C-12.54609665 48.83831131 -12.5541684 47.63600372 -12.56248474 46.39726257 C-12.57632337 43.85106854 -12.58704651 41.30485597 -12.59490967 38.75863647 C-12.61212928 34.86724692 -12.65602012 30.97670533 -12.70013428 27.08554077 C-12.71026062 24.61223973 -12.7187769 22.13893146 -12.7255249 19.6656189 C-12.74303299 18.50293991 -12.76054108 17.34026093 -12.77857971 16.14234924 C-12.75089961 5.81986404 -10.94428547 0.00743236 0 0 Z " fill="#0A73B9" transform="translate(662.2997436523438,109.84609985351563)"/>
<path d="M0 0 C0.97159933 7.68604474 1.10920422 15.25863399 1 23 C-1.37420493 23.60742646 -3.7493119 24.21092152 -6.125 24.8125 C-6.77082031 24.97814453 -7.41664063 25.14378906 -8.08203125 25.31445312 C-15.02668584 27.06715166 -21.97851537 28.49539615 -29 30 C-29 84.12 -29 138.24 -29 194 C-23.72 194.33 -18.44 194.66 -13 195 C-10.32774675 195.30920498 -7.65783412 195.64721342 -5 196.0625 C-3.845 196.23910156 -2.69 196.41570312 -1.5 196.59765625 C-0.675 196.73042969 0.15 196.86320312 1 197 C1.97134873 201.66967723 1.96204652 205.76822272 1.57861328 210.51489258 C1.49345963 211.60642891 1.49345963 211.60642891 1.40658569 212.72001648 C1.21818088 215.11213985 1.01936855 217.50327262 0.8203125 219.89453125 C0.68615715 221.56828594 0.55261177 223.24208962 0.41964722 224.91593933 C0.06820197 229.31721133 -0.29227139 233.71770058 -0.65441895 238.11810303 C-0.94709262 241.69311111 -1.23329707 245.26862288 -1.51914787 248.84418201 C-1.86208921 253.13197943 -2.20799888 257.41953537 -2.5546875 261.70703125 C-2.61997524 262.51549814 -2.68526299 263.32396503 -2.75252914 264.15693092 C-2.94006249 266.47039296 -3.12959548 268.78368203 -3.31982422 271.09692383 C-3.48090164 273.06499748 -3.48090164 273.06499748 -3.64523315 275.0728302 C-4.03504282 279.38791418 -4.52153827 283.69384444 -5 288 C-14.57 288 -24.14 288 -34 288 C-35.28544251 280.25928968 -36.56845019 272.51825789 -37.84521484 264.77612305 C-38.2798503 262.14233769 -38.7168107 259.50896808 -39.15478516 256.87573242 C-39.78403754 253.09094341 -40.40814357 249.30533632 -41.03125 245.51953125 C-41.32654602 243.7536541 -41.32654602 243.7536541 -41.62780762 241.95210266 C-41.80799438 240.85133896 -41.98818115 239.75057526 -42.17382812 238.61645508 C-42.41365417 237.16750603 -42.41365417 237.16750603 -42.6583252 235.68928528 C-43 233 -43 233 -43 228 C-94.81 228 -146.62 228 -200 228 C-200.66 231.63 -201.32 235.26 -202 239 C-202.41215817 240.84968032 -202.8432578 242.69552731 -203.31274414 244.53149414 C-203.54961441 245.46518326 -203.78648468 246.39887238 -204.03053284 247.3608551 C-204.27955856 248.32587448 -204.52858429 249.29089386 -204.78515625 250.28515625 C-205.04630722 251.30806259 -205.30745819 252.33096893 -205.57652283 253.38487244 C-206.12349723 255.52389307 -206.67230957 257.6624445 -207.22290039 259.80053711 C-208.06801783 263.08393753 -208.90649674 266.36898277 -209.74414062 269.65429688 C-210.27825877 271.73968251 -210.81275036 273.82497254 -211.34765625 275.91015625 C-211.72423119 277.38501244 -211.72423119 277.38501244 -212.1084137 278.8896637 C-212.34213181 279.79498337 -212.57584991 280.70030304 -212.81665039 281.63305664 C-213.02157608 282.43038712 -213.22650177 283.22771759 -213.43763733 284.04920959 C-214 286 -214 286 -215 288 C-223.25 288 -231.5 288 -240 288 C-240.64645623 283.47480637 -241.16687995 279.27791944 -241.38891602 274.75537109 C-241.44890274 273.56237396 -241.50888947 272.36937683 -241.57069397 271.14022827 C-241.66138405 269.22616684 -241.66138405 269.22616684 -241.75390625 267.2734375 C-241.81959509 265.92126788 -241.8854295 264.56910533 -241.95140076 263.21694946 C-242.08892427 260.38106447 -242.22388648 257.54507131 -242.35717773 254.70898438 C-242.49204963 251.84452772 -242.63068508 248.98029777 -242.77319336 246.11621094 C-243.58784239 229.73943785 -244.23987482 213.40187532 -244 197 C-239.9073287 195.74499372 -236.16912822 194.77591525 -231.890625 194.60546875 C-219.92591041 194.08455104 -219.92591041 194.08455104 -210.09204102 188.05932617 C-207.81683881 185.17549327 -205.90276455 182.13725978 -204 179 C-203.06685546 177.59995182 -202.12919565 176.20290466 -201.1875 174.80859375 C-177.92101606 139.49712396 -173.02224502 98.40035424 -172.375 57.125 C-172.33666072 55.05727813 -172.29760094 52.98956949 -172.2578125 50.921875 C-172.16362263 45.9480289 -172.0789949 40.97410966 -172 36 C-172.91084351 35.55406494 -172.91084351 35.55406494 -173.84008789 35.09912109 C-176.47470139 33.75843725 -178.92676072 32.18526946 -181.4375 30.625 C-186.92529784 27.35797152 -192.18084881 25.55985052 -198.3828125 24.1171875 C-201 23 -201 23 -202.41796875 20.8984375 C-203.18985827 17.05453128 -202.76251413 13.57883658 -202.1875 9.75 C-202.09146484 9.0178125 -201.99542969 8.285625 -201.89648438 7.53125 C-201.15472274 2.15472274 -201.15472274 2.15472274 -200 1 C-198.13325625 0.9056416 -196.26289125 0.88257721 -194.39376831 0.88647461 C-193.1750705 0.8865451 -191.95637268 0.8866156 -190.70074463 0.88668823 C-189.33679168 0.89182382 -187.97283905 0.89704526 -186.60888672 0.90234375 C-185.18122408 0.90426201 -183.75356077 0.90572624 -182.32589722 0.9067688 C-179.23805387 0.90994122 -176.15023756 0.91622868 -173.06240463 0.92483521 C-168.14749101 0.93837878 -163.2325864 0.94425935 -158.31765747 0.94897461 C-146.95638251 0.96103658 -135.59513006 0.9828206 -124.23387146 1.00520325 C-113.89958872 1.02553464 -103.56531509 1.04361603 -93.23101628 1.05341816 C-89.16281538 1.05751743 -85.09464219 1.06367532 -81.02645493 1.07516479 C-62.5441936 1.12683388 -44.10955727 0.92417578 -25.63943481 0.22265625 C-17.09223691 -0.09219117 -8.55127214 -0.09804006 0 0 Z M-90.59472656 32.09179688 C-91.71558655 32.11181763 -92.83644653 32.13183838 -93.99127197 32.15246582 C-95.19555847 32.1743396 -96.39984497 32.19621338 -97.640625 32.21875 C-98.87794373 32.24094604 -100.11526245 32.26314209 -101.39007568 32.28601074 C-104.6714321 32.34493835 -107.95278273 32.40417516 -111.23413086 32.46356201 C-114.58577008 32.52414481 -117.93741668 32.58431468 -121.2890625 32.64453125 C-127.85938179 32.76264608 -134.42969363 32.8811686 -141 33 C-140.98358459 33.89529922 -140.96716919 34.79059845 -140.95025635 35.71302795 C-139.98947453 90.9708733 -146.32631442 142.81171881 -173 192 C-165.87786222 192.40199666 -158.75521568 192.79347684 -151.63186741 193.17345428 C-148.31995895 193.35041032 -145.00838758 193.5312876 -141.69702148 193.71826172 C-121.40535577 194.86090675 -101.36883802 195 -81 195 C-81 141.21 -81 87.42 -81 32 C-84.20076896 32 -87.39477011 32.03414 -90.59472656 32.09179688 Z " fill="#0C73B9" transform="translate(780,850)"/>
<path d="M0 0 C35.97 0 71.94 0 109 0 C110.125 11.25 110.125 11.25 110.0625 16.625 C110.05347656 17.64851562 110.04445313 18.67203125 110.03515625 19.7265625 C110.02355469 20.47679687 110.01195312 21.22703125 110 22 C107.167031 22.79298919 104.33364215 23.58442272 101.5 24.375 C100.70851563 24.59671875 99.91703125 24.8184375 99.1015625 25.046875 C96.73649917 25.70599101 94.36924842 26.35609622 92 27 C90.89205078 27.30212402 90.89205078 27.30212402 89.76171875 27.61035156 C86.3559703 28.50601917 83.54959858 29 80 29 C80 50.45 80 71.9 80 94 C109.37 94 138.74 94 169 94 C169 72.55 169 51.1 169 29 C166.69 28.67 164.38 28.34 162 28 C160.22613826 27.50734017 158.46481028 26.96623954 156.72265625 26.37109375 C155.79775391 26.05849609 154.87285156 25.74589844 153.91992188 25.42382812 C152.97697266 25.09833984 152.03402344 24.77285156 151.0625 24.4375 C150.09248047 24.10814453 149.12246094 23.77878906 148.12304688 23.43945312 C145.74683102 22.63177385 143.37315216 21.81663727 141 21 C141.33 14.07 141.66 7.14 142 0 C177.97 0 213.94 0 251 0 C251.74625853 5.22380971 252.10864195 9.7234602 252.0625 14.9375 C252.05798828 15.62134766 252.05347656 16.30519531 252.04882812 17.00976562 C252.0371956 18.67321604 252.01926694 20.3366205 252 22 C246.55006944 23.9503096 240.99857371 25.28901288 235.375 26.625 C233.96347656 26.96917969 233.96347656 26.96917969 232.5234375 27.3203125 C231.6159375 27.536875 230.7084375 27.7534375 229.7734375 27.9765625 C228.95278809 28.17330566 228.13213867 28.37004883 227.28662109 28.57275391 C225 29 225 29 221 29 C221 84.44 221 139.88 221 197 C223.64 197.33 226.28 197.66 229 198 C230.77511125 198.35236407 232.54483245 198.73424219 234.3046875 199.15625 C235.21734375 199.37410156 236.13 199.59195312 237.0703125 199.81640625 C237.99585938 200.04199219 238.92140625 200.26757812 239.875 200.5 C240.82375 200.72558594 241.7725 200.95117188 242.75 201.18359375 C249.72600446 202.86300223 249.72600446 202.86300223 252 204 C252.02902429 207.27081471 252.04680684 210.5415963 252.0625 213.8125 C252.07087891 214.74126953 252.07925781 215.67003906 252.08789062 216.62695312 C252.09111328 217.51962891 252.09433594 218.41230469 252.09765625 219.33203125 C252.10289307 220.15421143 252.10812988 220.9763916 252.11352539 221.82348633 C252 224 252 224 251 227 C215.03 227 179.06 227 142 227 C139.75 213.5 139.75 213.5 140 206 C143.80731355 204.71443334 147.61592191 203.43278817 151.42578125 202.15478516 C152.72204323 201.71934244 154.01794438 201.28282408 155.31347656 200.84521484 C157.17418041 200.21690673 159.03629031 199.59276741 160.8984375 198.96875 C162.57945557 198.40317383 162.57945557 198.40317383 164.29443359 197.82617188 C167 197 167 197 169 197 C169 172.58 169 148.16 169 123 C139.63 123 110.26 123 80 123 C80 147.42 80 171.84 80 197 C82.64 197.33 85.28 197.66 88 198 C89.70307827 198.34950661 91.40032093 198.73042462 93.0859375 199.15625 C93.95347656 199.37410156 94.82101562 199.59195312 95.71484375 199.81640625 C96.59269531 200.04199219 97.47054687 200.26757812 98.375 200.5 C99.27605469 200.72558594 100.17710937 200.95117188 101.10546875 201.18359375 C107.7181326 202.8590663 107.7181326 202.8590663 110 204 C110.02762421 205.95824931 110.04667014 207.91661983 110.0625 209.875 C110.07410156 210.96554687 110.08570313 212.05609375 110.09765625 213.1796875 C109.979564 217.79945631 109.45983434 222.4016566 109 227 C72.7 227 36.4 227 -1 227 C-1.79589269 222.22464388 -2.1228251 217.91388502 -2.0625 213.125 C-2.05798828 212.43664063 -2.05347656 211.74828125 -2.04882812 211.0390625 C-2.03716336 209.35933665 -2.01923271 207.67965625 -2 206 C2.06105795 204.68300898 6.12408411 203.37219603 10.1875 202.0625 C11.33798828 201.68931641 12.48847656 201.31613281 13.67382812 200.93164062 C14.78564453 200.57392578 15.89746094 200.21621094 17.04296875 199.84765625 C18.57473755 199.3527771 18.57473755 199.3527771 20.13745117 198.84790039 C23 198 23 198 28 197 C27.67 141.89 27.34 86.78 27 30 C18.42 27.36 9.84 24.72 1 22 C0.01 21.34 -0.98 20.68 -2 20 C-2.26464844 18.15234375 -2.26464844 18.15234375 -2.109375 15.9375 C-2.05910156 15.14085937 -2.00882813 14.34421875 -1.95703125 13.5234375 C-1.88871094 12.69070313 -1.82039062 11.85796875 -1.75 11 C-1.69714844 10.16726563 -1.64429688 9.33453125 -1.58984375 8.4765625 C-1.16171288 2.32342575 -1.16171288 2.32342575 0 0 Z " fill="#0A72B9" transform="translate(809,851)"/>
<path d="M0 0 C1.01725914 0.00424484 1.01725914 0.00424484 2.05506897 0.00857544 C4.19445391 0.01965834 6.33340055 0.0447389 8.47265625 0.0703125 C9.93423869 0.08035774 11.39582778 0.08948087 12.85742188 0.09765625 C16.41680604 0.11955825 19.97593828 0.15400384 23.53515625 0.1953125 C21.02509827 2.73240237 18.49407088 5.07382977 15.72265625 7.3203125 C7.83272116 14.22584228 3.60163041 22.28697396 0.53515625 32.1953125 C0.20515625 33.1853125 -0.12484375 34.1753125 -0.46484375 35.1953125 C-0.56216797 37.3496563 -0.5976175 39.50694771 -0.60185814 41.66348457 C-0.60450997 42.3263638 -0.60716179 42.98924303 -0.60989398 43.6722095 C-0.61759695 45.90934562 -0.61814654 48.14642693 -0.6187439 50.38357544 C-0.62275798 51.99764451 -0.62719611 53.61171257 -0.63202345 55.22577941 C-0.64400291 59.67435694 -0.6496407 64.12292362 -0.65420461 68.57151413 C-0.66015628 73.36544762 -0.67176799 78.15936811 -0.68249512 82.95329285 C-0.70704102 94.54440654 -0.72165563 106.13552455 -0.73455518 117.72665626 C-0.73826749 121.0034825 -0.74224076 124.28030833 -0.74630785 127.55713415 C-0.77156019 147.92182397 -0.79360565 168.28651448 -0.806036 188.65121651 C-0.80896557 193.37099332 -0.81192723 198.09077011 -0.81494141 202.81054688 C-0.81568746 203.98358544 -0.81643351 205.15662401 -0.81720217 206.36520921 C-0.82982781 225.32419737 -0.86301038 244.28309114 -0.90474324 263.24203528 C-0.94728028 282.72705541 -0.97074516 302.21202743 -0.97595656 321.69709384 C-0.9793589 332.62858266 -0.99097312 343.55992442 -1.0240593 354.49136734 C-1.05222399 363.81208594 -1.06298813 373.13262736 -1.05186383 382.45338519 C-1.0467175 387.19981937 -1.04929741 391.94588354 -1.07432938 396.69226265 C-1.26470427 434.92772122 3.93162791 466.78423216 28.53515625 497.1953125 C28.98205811 497.74896484 29.42895996 498.30261719 29.8894043 498.87304688 C48.39322237 521.46439013 78.09041757 534.18064096 106.53515625 537.1953125 C126.92244533 538.579944 148.75837825 537.93117517 167.53515625 529.1953125 C169.21738281 528.48761719 169.21738281 528.48761719 170.93359375 527.765625 C183.06839006 522.47474852 194.91297011 515.96062947 204.24609375 506.42578125 C206.53515625 504.1953125 206.53515625 504.1953125 208.53515625 504.1953125 C208.78007813 503.62683594 209.025 503.05835938 209.27734375 502.47265625 C210.75326901 499.80040647 212.5372649 497.95097377 214.66015625 495.7578125 C220.66405675 489.22130792 225.33346253 481.90770958 229.09375 473.859375 C230.53515625 471.1953125 230.53515625 471.1953125 233.22265625 470.3203125 C234.36734375 470.2584375 234.36734375 470.2584375 235.53515625 470.1953125 C234.03272445 476.05479652 230.94444466 480.31134259 227.53515625 485.1953125 C226.52388672 486.72091797 226.52388672 486.72091797 225.4921875 488.27734375 C221.01805648 494.9529056 216.3321044 500.91061365 210.796875 506.7578125 C208.50961167 509.15198765 208.50961167 509.15198765 206.5546875 511.7421875 C202.8437224 516.24989753 198.10322877 519.59640414 193.53515625 523.1953125 C192.67277344 523.90816406 191.81039062 524.62101563 190.921875 525.35546875 C157.33304167 552.13903918 114.97379008 558.66104477 73.20458984 554.89501953 C67.82340339 554.14537776 62.70898076 552.82679928 57.53515625 551.1953125 C56.01565168 550.75511623 54.49611956 550.31501505 52.9765625 549.875 C42.59474556 546.74123742 33.03712189 542.3872218 23.53515625 537.1953125 C22.65859375 536.72609375 21.78203125 536.256875 20.87890625 535.7734375 C-4.4819425 521.40228988 -24.06760703 499.6465408 -37.51269531 474.00585938 C-38.38067366 472.35536516 -39.27677904 470.7197406 -40.17578125 469.0859375 C-51.50842743 447.8012721 -54.61677512 422.99110351 -54.61201477 399.22343445 C-54.61531991 397.71851581 -54.61904684 396.21359806 -54.62315625 394.7086814 C-54.63310941 390.59479706 -54.63688214 386.48092731 -54.63954556 382.36703265 C-54.64346828 377.9217859 -54.65304474 373.47655049 -54.66175842 369.03131104 C-54.6814613 358.31082077 -54.69157844 347.59032964 -54.70048621 336.86982581 C-54.70487682 331.81531938 -54.71024139 326.76081398 -54.71547508 321.70630836 C-54.73247661 304.89663632 -54.74697169 288.0869649 -54.75422382 271.27728558 C-54.75613353 266.92159207 -54.7580539 262.56589857 -54.76000977 258.21020508 C-54.76049351 257.12769574 -54.76097725 256.0451864 -54.76147565 254.92987374 C-54.76977976 237.38587316 -54.79512795 219.84194068 -54.82759044 202.29796984 C-54.86067892 184.26824127 -54.87867396 166.23854731 -54.88186806 148.20878822 C-54.88403084 138.09270325 -54.89274627 127.97671777 -54.91832924 117.86066246 C-54.94006015 109.24831672 -54.94807465 100.63609468 -54.93836246 92.02372464 C-54.93382552 87.63319517 -54.93566883 83.24292082 -54.9551239 78.85242653 C-54.97281077 74.82609674 -54.97171356 70.80020717 -54.95622661 66.77387235 C-54.95385896 65.32441523 -54.95812995 63.87492717 -54.97005526 62.42551716 C-55.10572882 44.83332138 -49.85807445 30.20182452 -37.66796875 17.40625 C-36.9409375 16.67664063 -36.21390625 15.94703125 -35.46484375 15.1953125 C-34.9234375 14.63070312 -34.38203125 14.06609375 -33.82421875 13.484375 C-25.05428818 5.11307764 -11.98478545 -0.0994588 0 0 Z " fill="#FBFCFD" transform="translate(496.46484375,166.8046875)"/>
<path d="M0 0 C31.86942946 -1.03637828 31.86942946 -1.03637828 43 5 C43.88816406 5.44601563 44.77632813 5.89203125 45.69140625 6.3515625 C59.3147535 13.79760573 69.17512806 25.28005172 74 40 C74.36270246 40.95503634 74.36270246 40.95503634 74.73273224 41.92936635 C77.41630843 49.63430376 77.42255436 57.07452557 77.38526917 65.15496826 C77.38928153 66.67980114 77.39461093 68.20463103 77.40113491 69.72945523 C77.41523021 73.89847751 77.41087277 78.06730392 77.40342176 82.23633575 C77.39866923 86.74092026 77.41125689 91.24546047 77.42178345 95.75003052 C77.43773977 103.55065868 77.44303618 111.35123494 77.44125557 119.15187836 C77.43886814 130.44543799 77.45488516 141.73891497 77.47570812 153.03245297 C77.50921813 171.37709802 77.53088937 189.72173567 77.54370117 208.06640625 C77.54447066 209.16360635 77.54524015 210.26080646 77.54603296 211.39125505 C77.54913503 215.83651465 77.55221785 220.28177427 77.555273 224.7270339 C77.56379894 236.95539422 77.57470161 249.18375197 77.58666992 261.41210938 C77.58773794 262.50675486 77.58880596 263.60140034 77.58990634 264.7292169 C77.60801898 283.00191317 77.63402305 301.27459188 77.66480106 319.54727101 C77.6833208 330.80752786 77.6942687 342.0677452 77.69532298 353.3280175 C77.69642919 361.04833631 77.70440631 368.76862807 77.71770663 376.48893544 C77.72510069 380.93824282 77.72924076 385.387491 77.72458839 389.83680344 C77.72036198 393.91798045 77.72540863 397.99904193 77.73749625 402.08020225 C77.74024058 403.54851179 77.73968945 405.01683244 77.73531515 406.48513803 C77.61863337 449.12991689 94.95938453 484.79882939 123 516 C123.60199219 516.67546875 124.20398438 517.3509375 124.82421875 518.046875 C134.00209376 527.7564657 145.4910026 535.37978026 157 542 C157.94746094 542.55558594 158.89492188 543.11117187 159.87109375 543.68359375 C166.04949398 547.19783275 172.28119353 549.71930422 179 552 C180.35621975 552.51546359 181.71058476 553.03585029 183.0625 553.5625 C200.30350436 559.98017768 218.068862 562.23448432 236.375 562.25 C237.44746475 562.25101212 237.44746475 562.25101212 238.54159546 562.25204468 C249.63217633 562.23543109 260.19341612 561.60506784 271 559 C272.13985352 558.74259033 272.13985352 558.74259033 273.30273438 558.47998047 C302.45272903 551.84473962 327.55728215 537.70963348 349 517 C349.80179688 516.24976563 350.60359375 515.49953125 351.4296875 514.7265625 C364.23251843 502.45533701 374.59729094 486.45808465 381.55078125 470.16015625 C383 468 383 468 385.66796875 467.18359375 C386.43753906 467.12300781 387.20710938 467.06242187 388 467 C382.81236371 480.33963618 375.55211654 491.60305569 367 503 C366.27039063 503.97710938 365.54078125 504.95421875 364.7890625 505.9609375 C338.32003749 539.73176252 296.69047344 564.29686282 254 570 C252.95457031 570.18433594 251.90914062 570.36867188 250.83203125 570.55859375 C227.43324234 574.2585113 203.10003623 572.69824192 180 568 C179.22285645 567.84515137 178.44571289 567.69030273 177.64501953 567.53076172 C127.38287077 557.18031238 84.3564263 524.05430019 56.35546875 481.89990234 C51.36237274 474.20929275 47.05507236 466.21737545 43 458 C42.50886719 457.01644531 42.01773438 456.03289062 41.51171875 455.01953125 C35.95588481 443.37464091 32.47774834 430.94799785 29.68701172 418.39282227 C29.24857641 416.43113043 28.79097713 414.4745604 28.33203125 412.51757812 C27.89697266 410.58881836 27.89697266 410.58881836 27.453125 408.62109375 C27.19692383 407.4911499 26.94072266 406.36120605 26.67675781 405.19702148 C24.67002215 394.31536423 24.8524002 383.04411414 24.86196899 372.02044678 C24.85954392 370.56356043 24.85667951 369.10667477 24.85341966 367.64979005 C24.84574819 363.68736953 24.84405169 359.72496641 24.84336853 355.76253939 C24.84151412 351.47352362 24.83389944 347.1845177 24.82688904 342.89550781 C24.81540952 335.47582881 24.80714152 328.05615202 24.80076981 320.63646698 C24.79040381 308.90445984 24.76983232 297.17248062 24.74765015 285.44049072 C24.74017228 281.42017755 24.73275835 277.39986426 24.72536278 273.37955093 C24.72351221 272.37511469 24.72166165 271.37067845 24.719755 270.33580475 C24.69886474 258.92471888 24.68001647 247.51362997 24.66210938 236.10253906 C24.6596521 234.53930465 24.6596521 234.53930465 24.65714519 232.94448975 C24.63082895 216.03570691 24.61219865 199.1269219 24.59551747 182.21812722 C24.57809261 164.83575932 24.54924897 147.45343419 24.5106281 130.07110047 C24.4872544 119.36025918 24.47323591 108.6494876 24.47130047 97.9386206 C24.46918995 90.60240102 24.4562512 83.26625089 24.43482114 75.9300625 C24.42280599 71.69992918 24.41563173 67.46993371 24.42153358 63.23978424 C24.42684469 59.36369117 24.41830002 55.48787891 24.39897721 51.61183265 C24.39441812 50.21370481 24.3948495 48.81554935 24.40092559 47.41742727 C24.45912038 32.70811451 21.00386454 19.94488218 10.5 9.0625 C7.23315114 6.0327014 3.65577243 3.53665842 0 1 C0 0.67 0 0.34 0 0 Z " fill="#FBFCFD" transform="translate(358,167)"/>
<path d="M0 0 C1.7578125 0.05078125 1.7578125 0.05078125 4.125 0.3125 C5.0428125 0.41175781 5.960625 0.51101563 6.90625 0.61328125 C8.99329957 0.87416245 11.0769131 1.16393603 13.15625 1.48046875 C35.09084595 4.76571792 56.44979729 3.78322263 78.48242188 2.1184082 C88.44998869 1.37933021 98.3614179 0.85840497 108.359375 0.8515625 C109.28460464 0.8506813 110.20983429 0.84980011 111.1631012 0.84889221 C132.04985734 0.97988647 155.72301743 3.87296563 171.34375 19.25390625 C172.16359375 20.11822266 172.16359375 20.11822266 173 21 C173.5878125 21.54527344 174.175625 22.09054687 174.78125 22.65234375 C178.97594807 26.85624072 181.42447555 31.51023457 183.8125 36.875 C184.10261963 37.52267334 184.39273926 38.17034668 184.69165039 38.83764648 C188.8945488 48.82371327 189.34029031 58.63682355 189.3125 69.375 C189.32861328 70.6125 189.34472656 71.85 189.36132812 73.125 C189.3708078 91.13638039 183.36201219 106.78543525 171 120 C168.44637204 122.49492387 165.79963929 124.78646406 163 127 C162.44828125 127.44988281 161.8965625 127.89976562 161.328125 128.36328125 C139.223564 145.36274125 107.70839701 146.03766004 81.29248047 142.79956055 C78.39595798 142.41352389 75.77978342 141.92659447 73 141 C73 160.14 73 179.28 73 199 C78.94 199.99 78.94 199.99 85 201 C88.41953042 201.81008802 91.79949079 202.64394883 95.1875 203.5625 C96.45303711 203.89411133 96.45303711 203.89411133 97.74414062 204.23242188 C103.86497253 205.86497253 103.86497253 205.86497253 105 207 C104.67 214.26 104.34 221.52 104 229 C67.04 229 30.08 229 -8 229 C-8 221.41 -8 213.82 -8 206 C-4.1059104 204.99275281 -0.20998215 203.99395869 3.6875 203 C4.79029297 202.71382812 5.89308594 202.42765625 7.02929688 202.1328125 C8.09599609 201.86210938 9.16269531 201.59140625 10.26171875 201.3125 C11.73064575 200.93544922 11.73064575 200.93544922 13.22924805 200.55078125 C16 200 16 200 21 200 C21 144.23 21 88.46 21 31 C18.36 30.67 15.72 30.34 13 30 C10.77832031 29.45922852 10.77832031 29.45922852 9.078125 28.87890625 C8.44519531 28.66556641 7.81226563 28.45222656 7.16015625 28.23242188 C6.52980469 28.01134766 5.89945313 27.79027344 5.25 27.5625 C4.60417969 27.34529297 3.95835937 27.12808594 3.29296875 26.90429688 C0.07373604 25.80367625 -3.00775453 24.62457772 -6 23 C-2.65509259 2.65509259 -2.65509259 2.65509259 0 0 Z M73 36 C72.90556665 38.30053835 72.88257872 40.60402173 72.88647461 42.90649414 C72.88632858 43.62840439 72.88618256 44.35031464 72.8860321 45.09410095 C72.88673131 47.49114947 72.89452405 49.88812123 72.90234375 52.28515625 C72.9042079 53.94282489 72.90563182 55.60049407 72.90663147 57.25816345 C72.91045688 61.62954214 72.92028735 66.00088781 72.93133545 70.37225342 C72.94154908 74.82954461 72.94612899 79.28684111 72.95117188 83.74414062 C72.9619096 92.49610893 72.97898629 101.24805036 73 110 C88.63000986 113.26624247 107.1337595 112.5975219 120.74609375 103.7265625 C128.35873264 97.89504363 132.94357905 90.33997952 135 81 C136.11112953 68.1967226 135.68506694 57.43177851 127.3125 47.1875 C119.16560271 38.69615669 109.04653752 35.57573557 97.4309082 34.74462891 C93.86573174 34.67200449 90.31526136 34.6873829 86.75 34.75 C84.91888672 34.75773438 84.91888672 34.75773438 83.05078125 34.765625 C77.66118468 34.29789518 77.66118468 34.29789518 73 36 Z " fill="#0C73B9" transform="translate(147,849)"/>
<path d="M0 0 C2.77726373 0.09144672 5.52956146 0.24208341 8.30078125 0.4296875 C17.75600663 0.99760691 27.17379756 1.15406782 36.64428711 1.13037109 C39.19716258 1.12497959 41.74986393 1.13037864 44.30273438 1.13671875 C54.57576181 1.14042007 64.75530601 0.78331806 75 0 C75.12689209 1.01594238 75.25378418 2.03188477 75.38452148 3.07861328 C78.81448139 28.75294731 91.27411611 53.67367397 100.99713135 77.5380249 C102.05712465 80.14023717 103.11530293 82.74318313 104.17333984 85.34619141 C106.38091225 90.77470488 108.59559971 96.20029037 110.8125 101.625 C111.16701233 102.49403961 111.52152466 103.36307922 111.88677979 104.25845337 C112.88663676 106.70728425 113.88998776 109.154651 114.89453125 111.6015625 C115.19489792 112.33832718 115.49526459 113.07509186 115.80473328 113.83418274 C117.00330965 117.16152271 117.00330965 117.16152271 119 120 C119.40726318 118.88367188 119.81452637 117.76734375 120.23413086 116.6171875 C133.84499286 79.31822221 133.84499286 79.31822221 139.90771484 63.265625 C144.06638383 52.2237106 148.03288695 41.11188508 152 30 C151.37818848 29.8860791 150.75637695 29.7721582 150.11572266 29.65478516 C144.39726809 28.56571052 138.90624494 27.180264 133.375 25.375 C132.65699219 25.14554688 131.93898438 24.91609375 131.19921875 24.6796875 C129.46459705 24.12460856 127.73205841 23.56302643 126 23 C125.97261328 20.83340626 125.95343168 18.66670825 125.9375 16.5 C125.92589844 15.2934375 125.91429687 14.086875 125.90234375 12.84375 C126.00475831 8.81271305 126.47518515 4.99513036 127 1 C138.30883235 0.95373102 149.61764231 0.91815854 160.92654991 0.89637566 C166.17730418 0.88592283 171.42799385 0.87173637 176.67871094 0.84912109 C181.74261742 0.82744605 186.80646164 0.81544268 191.87041092 0.81024551 C193.80578212 0.80654013 195.74114979 0.79930481 197.6764946 0.78853989 C200.37994597 0.77409586 203.08313756 0.77201907 205.78662109 0.77294922 C206.99610664 0.76216339 206.99610664 0.76216339 208.23002625 0.75115967 C213.77189568 0.77189568 213.77189568 0.77189568 216 3 C216.14959797 6.16000638 215.66597084 9.29784725 215.3125 12.4375 C215.23322266 13.30955078 215.15394531 14.18160156 215.07226562 15.08007812 C214.98267578 15.91861328 214.89308594 16.75714844 214.80078125 17.62109375 C214.71997314 18.3886499 214.63916504 19.15620605 214.5559082 19.94702148 C213.88174588 22.43671451 212.98412627 23.38656439 211 25 C209.15022116 25.9665511 207.27112942 26.87787846 205.375 27.75 C177.86457295 41.27319788 169.56341883 73.77991141 158.8203125 100.30078125 C149.7093914 122.77708978 140.38648863 145.07993859 130 167 C129.46681152 168.12825195 128.93362305 169.25650391 128.38427734 170.41894531 C121.81406034 184.21742923 114.60233324 197.35902816 106 210 C105.35417969 210.95390625 104.70835937 211.9078125 104.04296875 212.890625 C95.18584066 225.08732598 81.85584829 232.62538355 67.20703125 235.52734375 C52.62901486 237.67586992 38.01854663 234.69981581 26 226 C24.576875 225.0409375 24.576875 225.0409375 23.125 224.0625 C18.60243063 219.67294737 16.10670279 214.42376764 15.91015625 208.1171875 C16.33589389 199.05661729 18.46371237 192.80073489 24.7421875 186.15625 C28.72066073 182.54910094 33.08787092 178.86859388 38.68359375 179.12109375 C43.08246665 180.28687279 46.266403 182.45721451 50 185 C50.73968018 185.48823242 51.47936035 185.97646484 52.24145508 186.47949219 C55.85894663 188.86918439 59.44353405 191.30308755 63.01171875 193.765625 C63.63369141 194.18585938 64.25566406 194.60609375 64.89648438 195.0390625 C66.59011481 196.18415614 68.27013038 197.34931212 69.94921875 198.515625 C73.58840255 200.28629061 75.17344269 200.14796719 79 199 C92.45088699 191.89387102 99.41821228 173.74536315 104 160 C95.75 160 87.5 160 79 160 C72.1691854 144.86264653 65.40084144 129.70454069 58.82382202 114.4548645 C55.70215112 107.21780903 52.56377097 99.98903571 49.375 92.78125 C49.06837936 92.08744232 48.76175873 91.39363464 48.44584656 90.67880249 C46.88296382 87.14510011 45.31340518 83.61456834 43.73364258 80.08837891 C40.72273708 73.34273905 37.79902709 66.5836573 35.10290527 59.70509338 C33.8339932 56.47050986 32.53591046 53.24792224 31.23773193 50.0249939 C30.6285929 48.48607297 30.03474405 46.94099743 29.45758057 45.38980103 C26.36817797 36.61785986 26.36817797 36.61785986 20.14501953 30.01928711 C17.11715781 28.73345358 14.18449007 27.81117652 11 27 C9.58258638 26.48887898 8.17000833 25.96387489 6.765625 25.41796875 C5.60546875 25.01191406 4.4453125 24.60585938 3.25 24.1875 C2.05890625 23.76855469 0.8678125 23.34960938 -0.359375 22.91796875 C-1.66648437 22.46357422 -1.66648437 22.46357422 -3 22 C-2.69471967 18.52015976 -2.37957083 15.04128417 -2.0625 11.5625 C-1.97548828 10.56927734 -1.88847656 9.57605469 -1.79882812 8.55273438 C-1.71181641 7.60849609 -1.62480469 6.66425781 -1.53515625 5.69140625 C-1.456604 4.81685791 -1.37805176 3.94230957 -1.29711914 3.04125977 C-1 1 -1 1 0 0 Z " fill="#0E75BA" transform="translate(345,850)"/>
<path d="M0 0 C1.91094056 2.60612708 2.43727306 4.2804218 2.93237305 7.45776367 C3.09519775 8.49320312 3.25802246 9.52864258 3.42578125 10.59545898 C3.57877686 11.72177734 3.73177246 12.8480957 3.8894043 14.00854492 C4.13920044 15.78116699 4.13920044 15.78116699 4.39404297 17.58959961 C7.91861834 44.76254023 7.6845843 72.72824752 3.8269043 99.82104492 C3.66552979 100.9617041 3.50415527 102.10236328 3.33789062 103.27758789 C1.62719784 114.36845492 1.62719784 114.36845492 -1.2980957 119.32104492 C-4.94737567 121.25439184 -7.36550839 121.48860611 -11.3918457 120.78198242 C-12.4024707 120.61553223 -13.4130957 120.44908203 -14.4543457 120.27758789 C-15.5577832 120.08567871 -16.6612207 119.89376953 -17.7980957 119.69604492 C-49.49503547 114.62609855 -81.42816123 112.03842567 -113.5012207 111.05151367 C-114.78762451 111.0111499 -116.07402832 110.97078613 -117.39941406 110.92919922 C-119.79839031 110.85928629 -122.19767131 110.79889388 -124.59716797 110.75 C-137.2026493 110.41649132 -137.2026493 110.41649132 -140.2980957 107.32104492 C-140.40935219 104.38469086 -140.45549744 101.47164079 -140.45922852 98.53442383 C-140.46419342 97.61250748 -140.46915833 96.69059113 -140.47427368 95.74073792 C-140.48893604 92.67635362 -140.49570405 89.6120211 -140.5012207 86.54760742 C-140.50696879 84.42630002 -140.51272656 82.30499265 -140.51849365 80.1836853 C-140.52901524 75.72979489 -140.53485032 71.27592259 -140.53833008 66.82202148 C-140.54381732 61.10624765 -140.56784548 55.39071174 -140.59630203 49.67501259 C-140.61489737 45.29134414 -140.62013235 40.90773335 -140.62166595 36.52402878 C-140.62470003 34.41643345 -140.63275378 32.30883932 -140.64585114 30.2012825 C-140.66284687 27.25615434 -140.66104724 24.31161195 -140.65454102 21.36645508 C-140.6637558 20.49049179 -140.67297058 19.6145285 -140.6824646 18.71202087 C-140.64100263 12.74100956 -140.64100263 12.74100956 -138.89664841 10.60466576 C-136.87537438 8.98160419 -135.63858264 8.84309718 -133.0637207 8.65698242 C-132.17104492 8.59220703 -131.27836914 8.52743164 -130.35864258 8.46069336 C-124.9698997 8.21481262 -119.58077939 8.09504316 -114.18768311 7.99057007 C-82.35252042 7.32807538 -50.78670636 4.18955864 -19.27026367 -0.24487305 C-18.60042953 -0.33764023 -17.9305954 -0.43040741 -17.24046326 -0.52598572 C-15.37765974 -0.78414986 -13.5154678 -1.04671595 -11.65332031 -1.30957031 C-3.08383607 -2.25300549 -3.08383607 -2.25300549 0 0 Z " fill="#0872B8" transform="translate(724.298095703125,383.678955078125)"/>
<path d="M0 0 C1.44018019 -0.00614149 2.88036795 -0.01052257 4.32055664 -0.01416016 C5.12255997 -0.01678864 5.92456329 -0.01941711 6.75086975 -0.02212524 C29.1858873 0.19857351 51.78992681 12.50818339 69 26 C69.55284668 26.43183594 70.10569336 26.86367187 70.67529297 27.30859375 C102.60955327 52.56373185 123.078819 89.83077108 134.9375 128.25 C135.39781616 129.73318726 135.39781616 129.73318726 135.86743164 131.24633789 C136.14707764 132.18082764 136.42672363 133.11531738 136.71484375 134.078125 C136.96355225 134.90731445 137.21226074 135.73650391 137.46850586 136.59082031 C138.02902494 139.13156551 138.09501973 141.40645222 138 144 C126.42450244 146.31948342 114.84443157 148.08664281 103.125 149.5 C102.24927338 149.6060556 101.37354675 149.71211121 100.47128296 149.82138062 C72.86378928 153.13026346 45.25266349 155.27225931 17.4375 155.25 C16.60360748 155.24940582 15.76971497 155.24881165 14.91055298 155.24819946 C1.21046099 155.21046099 1.21046099 155.21046099 0 154 C-0.096708 152.01305149 -0.12187052 150.02260987 -0.12025452 148.03330994 C-0.12162918 146.73615555 -0.12300385 145.43900116 -0.12442017 144.10253906 C-0.12088055 142.6516111 -0.11724573 141.20068337 -0.11352539 139.74975586 C-0.11324353 138.23238629 -0.11340123 136.71501658 -0.1139679 135.19764709 C-0.11425591 131.06559484 -0.10835858 126.93357137 -0.10139394 122.80152583 C-0.09516102 118.48801108 -0.09455665 114.17449573 -0.09336853 109.86097717 C-0.09025503 101.68699883 -0.08204139 93.51303379 -0.07201904 85.33906132 C-0.06085848 76.03571031 -0.0553476 66.73235868 -0.05032361 57.42900264 C-0.03985879 38.28599421 -0.02225899 19.14299817 0 0 Z " fill="#0872B8" transform="translate(584,229)"/>
<path d="M0 0 C0.88107422 -0.0009668 1.76214844 -0.00193359 2.66992188 -0.00292969 C4.13655273 0.02365723 4.13655273 0.02365723 5.6328125 0.05078125 C7.20385742 0.0677002 7.20385742 0.0677002 8.80664062 0.08496094 C38.23208354 0.56499821 67.53399905 2.99707359 96.7578125 6.36328125 C97.86452301 6.49023376 97.86452301 6.49023376 98.99359131 6.61975098 C103.67052865 7.16113532 108.33993315 7.74779765 113.0078125 8.36328125 C114.15580322 8.50491699 115.30379395 8.64655273 116.48657227 8.79248047 C117.52998779 8.93959473 118.57340332 9.08670898 119.6484375 9.23828125 C120.54594727 9.35945313 121.44345703 9.480625 122.36816406 9.60546875 C125.40469894 10.56842382 126.79665808 11.87858139 128.7578125 14.36328125 C128.65508714 20.23330165 126.49795721 25.8382679 124.6328125 31.36328125 C124.31860352 32.29462891 124.00439453 33.22597656 123.68066406 34.18554688 C120.91092704 42.21529397 117.61023289 49.78906133 113.7578125 57.36328125 C113.35546387 58.17297363 112.95311523 58.98266602 112.53857422 59.81689453 C106.78544699 71.37651752 100.71704773 82.18376996 92.7578125 92.36328125 C92.01917969 93.31203125 91.28054688 94.26078125 90.51953125 95.23828125 C70.19991335 120.64682654 45.12937313 140.95588242 12.7578125 148.36328125 C11.81035156 148.58628906 10.86289062 148.80929687 9.88671875 149.0390625 C-1.21323554 151.4635696 -1.21323554 151.4635696 -5.37492466 149.20671082 C-7.2421875 147.36328125 -7.2421875 147.36328125 -7.74275875 144.75361633 C-7.74296803 143.69837265 -7.74317732 142.64312897 -7.74339294 141.5559082 C-7.75814415 139.73876816 -7.75814415 139.73876816 -7.77319336 137.88491821 C-7.76382111 136.54046351 -7.75404178 135.19601159 -7.74389648 133.8515625 C-7.74767902 132.43728091 -7.75317852 131.02300301 -7.76026917 129.60873413 C-7.77424993 125.76570066 -7.763036 121.92311358 -7.74655795 118.08010483 C-7.73272462 114.0616189 -7.73916556 110.04315934 -7.74269104 106.0246582 C-7.74539453 99.27580558 -7.73190572 92.52713066 -7.70874023 85.77832031 C-7.68212953 77.97169261 -7.68038283 70.16536208 -7.6921286 62.35870457 C-7.70290155 54.85419977 -7.69672314 47.34980264 -7.68257332 39.8453064 C-7.67680929 36.6491746 -7.67689945 33.45312149 -7.68163872 30.25698853 C-7.68640521 26.49437364 -7.67632084 22.73208485 -7.65468407 18.96953201 C-7.64911148 17.58722661 -7.64865524 16.2048899 -7.65363693 14.82258224 C-7.65957595 12.93859896 -7.64527058 11.05458397 -7.62986755 9.1706543 C-7.62743766 8.11541061 -7.62500776 7.06016693 -7.62250423 5.97294617 C-7.2421875 3.36328125 -7.2421875 3.36328125 -5.84024143 1.52359009 C-3.7699827 0.02042461 -2.54780688 -0.01006931 0 0 Z " fill="#0872B8" transform="translate(591.2421875,501.63671875)"/>
<path d="M0 0 C82.17 0 164.34 0 249 0 C249 9.9 249 19.8 249 30 C246.90156738 30.01981934 244.80313477 30.03963867 242.64111328 30.06005859 C235.67609506 30.12722983 228.71122102 30.20486404 221.74637032 30.28752708 C217.52723547 30.33728573 213.30812322 30.38361604 209.08886719 30.421875 C205.01035276 30.45898785 200.93203732 30.50541496 196.85369492 30.55806351 C195.30456947 30.57647036 193.75540159 30.5916278 192.20621109 30.60334396 C170.83393873 30.77063187 153.51353911 35.82598732 137.83984375 50.9921875 C131.71767594 57.23946494 126.98660921 64.78682468 124 73 C121.58657088 69.95069735 119.73719634 66.78452856 117.875 63.375 C108.52483625 47.37669487 95.32169845 38.73550919 78 33 C77.09978119 32.6565152 76.19956238 32.3130304 75.27206421 31.95913696 C71.61362172 30.88674132 68.51966528 30.72125963 64.70947266 30.68115234 C64.00633942 30.67110672 63.30320618 30.6610611 62.57876587 30.65071106 C60.27387243 30.62002507 57.96909436 30.60288503 55.6640625 30.5859375 C54.05837013 30.56721407 52.45268748 30.54763979 50.84701538 30.5272522 C46.6352513 30.47604899 42.42345536 30.43636031 38.21154785 30.39910889 C33.90787959 30.35899494 29.60434251 30.3079364 25.30078125 30.2578125 C16.86727074 30.16119309 8.43370554 30.07775622 0 30 C0 20.1 0 10.2 0 0 Z " fill="#FCFDFE" transform="translate(315,129)"/>
<path d="M0 0 C53.13 0 106.26 0 161 0 C161 9.9 161 19.8 161 30 C158.11894531 30.01417969 155.23789062 30.02835938 152.26953125 30.04296875 C149.43616565 30.07370396 146.60302615 30.11276261 143.76977539 30.15258789 C141.82161631 30.17558688 139.87333608 30.19012048 137.92504883 30.19555664 C119.66624986 30.25649743 105.98285707 33.33026154 92.3125 46.25 C87.99737959 50.69381698 84.90120963 55.55027681 82 61 C80.36922573 58.86553092 78.80780272 56.71414538 77.30859375 54.484375 C69.72157163 43.39686876 59.35822543 34.65963046 46.08129883 31.37866211 C37.96944767 29.90282854 29.46466013 30.30662558 21.25 30.25 C19.18487129 30.22179495 17.11976544 30.19186131 15.0546875 30.16015625 C10.0362393 30.08363096 5.01930417 30.04260869 0 30 C0 20.1 0 10.2 0 0 Z " fill="#FBFDFE" transform="translate(670,129)"/>
<path d="M0 0 C9.01466756 1.29941154 16.51364931 7.64607562 22.2109375 14.45703125 C26.79218216 20.96880041 31.13523583 28.55703575 31.11352539 36.6550293 C31.11344986 37.59577805 31.11337433 38.53652679 31.11329651 39.50578308 C31.10813522 40.51836685 31.10297394 41.53095062 31.09765625 42.57421875 C31.0962413 43.61318802 31.09482635 44.65215729 31.09336853 45.72261047 C31.08776656 49.04426948 31.07521372 52.36586133 31.0625 55.6875 C31.05748525 57.93815007 31.0529223 60.18880119 31.04882812 62.43945312 C31.03779649 67.95965837 31.02105643 73.47982439 31 79 C25.25 78.125 25.25 78.125 23 77 C22.98598145 75.14822144 22.98598145 75.14822144 22.97167969 73.2590332 C22.93140221 68.61984943 22.86554388 63.98130285 22.79248047 59.3425293 C22.76448764 57.34586862 22.74316682 55.34910159 22.72900391 53.35229492 C22.61238839 37.83076973 21.90416829 24.71550773 12 12 C11.38125 11.15501953 11.38125 11.15501953 10.75 10.29296875 C7.67917971 6.30292265 4.1023792 3.81535828 0 1 C0 0.67 0 0.34 0 0 Z " fill="#EDF4F9" transform="translate(717,169)"/>
<path d="M0 0 C0.66 0.33 1.32 0.66 2 1 C1.34773437 1.53367188 0.69546875 2.06734375 0.0234375 2.6171875 C-9.60905633 10.82895953 -16.7000032 21.09127478 -18.3861084 33.94296265 C-18.55198537 37.04422202 -18.60577117 40.12483653 -18.609375 43.23046875 C-18.62591125 44.34690262 -18.64244751 45.46333649 -18.65948486 46.61360168 C-18.70761279 50.13829238 -18.72925792 53.66255276 -18.75 57.1875 C-18.77818903 59.59442228 -18.80812051 62.00132483 -18.83984375 64.40820312 C-18.91336202 70.27205819 -18.96520985 76.13579399 -19 82 C-20.98 81.67 -22.96 81.34 -25 81 C-25.07671463 74.52628257 -25.12887575 68.05268443 -25.16479492 61.57861328 C-25.1797854 59.38097757 -25.20018466 57.18337129 -25.22631836 54.98583984 C-25.58783821 23.7817146 -25.58783821 23.7817146 -15 11 C-5.72016711 2.20581608 -5.72016711 2.20581608 0 0 Z " fill="#ECF4F9" transform="translate(781,170)"/>
<path d="M0 0 C-3.08809695 1.76462683 -4.23312136 2 -8 2 C-8 57.44 -8 112.88 -8 170 C-5.36 170.33 -2.72 170.66 0 171 C2.01728138 171.61238899 4.02604477 172.25976679 6 173 C3.11936824 174.44031588 1.14160799 173.67629179 -2 173.125 C-3.60875 172.85042969 -3.60875 172.85042969 -5.25 172.5703125 C-8 172 -8 172 -10 171 C-10 114.9 -10 58.8 -10 1 C-3 -1 -3 -1 0 0 Z " fill="#549BCD" transform="translate(1038,878)"/>
<path d="M0 0 C1.32 0 2.64 0 4 0 C-1.18763629 13.33963618 -8.44788346 24.60305569 -17 36 C-17.72960937 36.97710938 -18.45921875 37.95421875 -19.2109375 38.9609375 C-28.87235544 51.28757418 -40.62246647 63.66797219 -54 72 C-54.66 72 -55.32 72 -56 72 C-54.95450267 66.51113902 -52.6765864 64.70010968 -48.3359375 61.68359375 C-43.90763039 58.49195435 -39.97951493 54.72588879 -36 51 C-35.16082031 50.21496094 -34.32164062 49.42992187 -33.45703125 48.62109375 C-20.17277225 35.78994126 -9.96247654 19.79637413 -2.05859375 3.16015625 C-1 1 -1 1 0 0 Z " fill="#E2EEF6" transform="translate(742,634)"/>
<path d="M0 0 C2.97 0 5.94 0 9 0 C9 0.66 9 1.32 9 2 C6.03 1.505 6.03 1.505 3 1 C3 20.14 3 39.28 3 59 C5.31 59.33 7.62 59.66 10 60 C10 60.33 10 60.66 10 61 C2.25 61.125 2.25 61.125 0 60 C0 40.2 0 20.4 0 0 Z " fill="#4393C8" transform="translate(217,989)"/>
<path d="M0 0 C-1.23836856 4.82963738 -3.4083433 8.37624283 -6.21484375 12.41015625 C-7.53762925 14.3292083 -8.81476293 16.27990169 -10.06640625 18.24609375 C-10.76636719 19.34050781 -11.46632813 20.43492187 -12.1875 21.5625 C-12.84105469 22.59503906 -13.49460937 23.62757813 -14.16796875 24.69140625 C-14.77253906 25.45324219 -15.37710938 26.21507812 -16 27 C-16.99 27 -17.98 27 -19 27 C-21.15028304 27.94978897 -21.15028304 27.94978897 -23 29 C-21.7934375 27.453125 -21.7934375 27.453125 -20.5625 25.875 C-17.64131597 21.98008797 -14.95176025 17.96323412 -12.3125 13.875 C-11.93230713 13.28960449 -11.55211426 12.70420898 -11.16040039 12.10107422 C-9.38935586 9.33364665 -7.7984219 6.58726765 -6.35546875 3.6328125 C-4.54885328 0.12370925 -3.91822416 0 0 0 Z " fill="#E5F0F7" transform="translate(732,637)"/>
<path d="M0 0 C2.3125 1.5625 2.3125 1.5625 4 3 C3.47792969 2.78859375 2.95585937 2.5771875 2.41796875 2.359375 C-0.40026687 1.58941921 -2.11137441 1.41643927 -5 2 C-8.72210372 5.13549602 -11.70531021 8.71849927 -14.76025391 12.4921875 C-18.9081266 17.53694168 -23.4369057 21.60786933 -29 25 C-27.67289545 22.08825141 -26.20313507 19.91075556 -24.0234375 17.57421875 C-23.43876709 16.94515625 -22.85409668 16.31609375 -22.25170898 15.66796875 C-21.63239502 15.01441406 -21.01308105 14.36085938 -20.375 13.6875 C-19.42765991 12.68589844 -19.42765991 12.68589844 -18.46118164 11.6640625 C-5.66736824 -1.75852423 -5.66736824 -1.75852423 0 0 Z " fill="#5CA1CF" transform="translate(262,324)"/>
<path d="M0 0 C1.04671875 0.19851563 2.0934375 0.39703125 3.171875 0.6015625 C5.09773437 0.98441406 5.09773437 0.98441406 7.0625 1.375 C8.79665242 1.69651538 10.53104453 2.01673957 12.265625 2.3359375 C14.09396304 2.68116528 15.92208812 3.02752284 17.75 3.375 C18.64775146 3.54080566 19.54550293 3.70661133 20.47045898 3.87744141 C21.72838257 4.12373291 21.72838257 4.12373291 23.01171875 4.375 C23.76799561 4.519375 24.52427246 4.66375 25.3034668 4.8125 C26.17418823 5.0909375 26.17418823 5.0909375 27.0625 5.375 C27.5575 6.365 27.5575 6.365 28.0625 7.375 C22.48107123 6.88540099 17.11302069 6.0160185 11.625 4.875 C5.77413026 3.66589889 0.02175719 2.78163167 -5.9375 2.375 C-6.13085938 3.08527344 -6.32421875 3.79554688 -6.5234375 4.52734375 C-6.78382813 5.44644531 -7.04421875 6.36554687 -7.3125 7.3125 C-7.56773437 8.22902344 -7.82296875 9.14554688 -8.0859375 10.08984375 C-8.9375 12.375 -8.9375 12.375 -10.9375 13.375 C-10.51459963 11.41346209 -10.07368382 9.45580125 -9.625 7.5 C-9.38136719 6.40945313 -9.13773438 5.31890625 -8.88671875 4.1953125 C-7.20564284 -0.79948916 -4.63347389 -0.89079699 0 0 Z " fill="#64A5D2" transform="translate(736.9375,515.625)"/>
<path d="M0 0 C0.33 0.99 0.66 1.98 1 3 C1.66 3 2.32 3 3 3 C3 4.65 3 6.3 3 8 C11.25 8 19.5 8 28 8 C28 7.01 28 6.02 28 5 C28.66 5 29.32 5 30 5 C30 6.65 30 8.3 30 10 C20.43 10 10.86 10 1 10 C0.67 6.7 0.34 3.4 0 0 Z " fill="#549BCD" transform="translate(745,1128)"/>
<path d="M0 0 C8.91 0 17.82 0 27 0 C27 0.99 27 1.98 27 3 C18.09 2.67 9.18 2.34 0 2 C0 1.34 0 0.68 0 0 Z " fill="#81B5DB" transform="translate(424,1008)"/>
<path d="M0 0 C0.66 0.33 1.32 0.66 2 1 C1.30132813 1.62648437 0.60265625 2.25296875 -0.1171875 2.8984375 C-1.02726563 3.71570313 -1.93734375 4.53296875 -2.875 5.375 C-3.77992188 6.18710938 -4.68484375 6.99921875 -5.6171875 7.8359375 C-7.10896183 9.19076205 -8.57505435 10.57505435 -10 12 C-10.66 12 -11.32 12 -12 12 C-13.56266521 13.099763 -13.56266521 13.099763 -15.125 14.5 C-16.548125 15.7375 -16.548125 15.7375 -18 17 C-15.28356469 10.33238605 -8.05903878 4.40507532 -1.91015625 0.76171875 C-1.27980469 0.51035156 -0.64945313 0.25898438 0 0 Z " fill="#CDE2F0" transform="translate(781,170)"/>
<path d="M0 0 C-1.39759957 5.08218027 -3.55021107 9.96671562 -7 14 C-7.99 14 -8.98 14 -10 14 C-10 10.55860951 -9.16303398 8.92439685 -7.625 5.875 C-7.18414063 4.98554687 -6.74328125 4.09609375 -6.2890625 3.1796875 C-4.45240472 0.07406616 -3.60442961 0 0 0 Z " fill="#DCEBF4" transform="translate(732,637)"/>
<path d="M0 0 C1.90751172 2.86126758 2.43105737 4.29475892 3.0703125 7.5625 C3.33134766 8.88121094 3.33134766 8.88121094 3.59765625 10.2265625 C3.77167969 11.14179688 3.94570313 12.05703125 4.125 13 C4.30675781 13.91523438 4.48851562 14.83046875 4.67578125 15.7734375 C6 22.56379229 6 22.56379229 6 26 C5.01 25.67 4.02 25.34 3 25 C2.80083984 23.53626953 2.80083984 23.53626953 2.59765625 22.04296875 C2.42105469 20.77066406 2.24445312 19.49835938 2.0625 18.1875 C1.88847656 16.92292969 1.71445312 15.65835937 1.53515625 14.35546875 C1.09607545 11.01678297 1.09607545 11.01678297 0 8 C-0.12781786 5.32605036 -0.04391871 2.67904143 0 0 Z " fill="#60A4D1" transform="translate(956,403)"/>
<path d="M0 0 C0.66 0.33 1.32 0.66 2 1 C-3 6 -3 6 -4.8125 7.5 C-6.51035354 9.6446571 -6.21486964 11.34994106 -6 14 C-5.34 14.33 -4.68 14.66 -4 15 C-4 15.66 -4 16.32 -4 17 C-5.875 16.75 -5.875 16.75 -8 16 C-9.71718603 13.71041863 -10.03260431 12.45571933 -9.828125 9.59765625 C-8.75707196 6.23798515 -7.27402027 5.22500048 -4.4375 3.1875 C-3.61121094 2.58292969 -2.78492188 1.97835938 -1.93359375 1.35546875 C-1.29550781 0.90816406 -0.65742188 0.46085937 0 0 Z " fill="#5FA2D1" transform="translate(280,305)"/>
<path d="M0 0 C1.65 0 3.3 0 5 0 C5.66 5.28 6.32 10.56 7 16 C4.06540254 12.08720339 3.61003626 11.2725511 3.3125 6.75 C3.24675781 5.85796875 3.18101562 4.9659375 3.11328125 4.046875 C3.05720703 3.03367187 3.05720703 3.03367187 3 2 C1.68 1.67 0.36 1.34 -1 1 C-0.67 0.67 -0.34 0.34 0 0 Z " fill="#61A4D1" transform="translate(415,850)"/>
<path d="M0 0 C1.98 0 3.96 0 6 0 C6 0.66 6 1.32 6 2 C3.0751367 2.84191782 0.49258344 3.11819313 -2.546875 3.09765625 C-3.39121094 3.09443359 -4.23554687 3.09121094 -5.10546875 3.08789062 C-5.97816406 3.07951172 -6.85085938 3.07113281 -7.75 3.0625 C-9.08224609 3.05573242 -9.08224609 3.05573242 -10.44140625 3.04882812 C-12.62767329 3.037074 -14.81380179 3.02064249 -17 3 C-17 2.67 -17 2.34 -17 2 C-11.39 2 -5.78 2 0 2 C0 1.34 0 0.68 0 0 Z " fill="#2581BF" transform="translate(605,392)"/>
<path d="M0 0 C0.66 0 1.32 0 2 0 C2 2.97 2 5.94 2 9 C2.66 9 3.32 9 4 9 C4 9.66 4 10.32 4 11 C2.68 11 1.36 11 0 11 C0 7.37 0 3.74 0 0 Z " fill="#4A97CB" transform="translate(513,495)"/>
<path d="M0 0 C1.32 0.33 2.64 0.66 4 1 C3.34 1 2.68 1 2 1 C2.33 4.3 2.66 7.6 3 11 C2.01 11 1.02 11 0 11 C0 7.37 0 3.74 0 0 Z " fill="#579ECF" transform="translate(513,381)"/>
<path d="M0 0 C3.3 0 6.6 0 10 0 C10.33 0.99 10.66 1.98 11 3 C7.37 2.67 3.74 2.34 0 2 C0 1.34 0 0.68 0 0 Z " fill="#5CA1CF" transform="translate(548,755)"/>
<path d="M0 0 C0.99 0 1.98 0 3 0 C2.67 3.96 2.34 7.92 2 12 C-0.35333796 7.29332409 -0.17102038 5.1306114 0 0 Z " fill="#5EA3D0" transform="translate(637,912)"/>
<path d="M0 0 C3.96 0 7.92 0 12 0 C12.33 0.99 12.66 1.98 13 3 C8.71 2.34 4.42 1.68 0 1 C0 0.67 0 0.34 0 0 Z " fill="#5BA1CF" transform="translate(555,649)"/>
<path d="M0 0 C-0.60183749 2.02045442 -1.27306096 4.02111039 -2 6 C-2.99 6.495 -2.99 6.495 -4 7 C-4 6.34 -4 5.68 -4 5 C-4.66 5 -5.32 5 -6 5 C-5.625 3.0625 -5.625 3.0625 -5 1 C-3 0 -3 0 0 0 Z " fill="#BBD8EB" transform="translate(732,637)"/>
<path d="M0 0 C2.64 0 5.28 0 8 0 C8.33 0.99 8.66 1.98 9 3 C6.03 2.67 3.06 2.34 0 2 C0 1.34 0 0.68 0 0 Z " fill="#509ACC" transform="translate(633,493)"/>
<path d="M0 0 C1.4800841 0.11362262 2.95910074 0.24122908 4.4375 0.375 C5.26121094 0.44460938 6.08492187 0.51421875 6.93359375 0.5859375 C7.95646484 0.79089844 7.95646484 0.79089844 9 1 C9.33 1.66 9.66 2.32 10 3 C6.7 3 3.4 3 0 3 C0 2.01 0 1.02 0 0 Z " fill="#549CCD" transform="translate(695,509)"/>
<path d="M0 0 C0 0.66 0 1.32 0 2 C-3.3 2.33 -6.6 2.66 -10 3 C-10 2.34 -10 1.68 -10 1 C-6.61981469 -0.04005702 -3.5219721 -0.08004482 0 0 Z " fill="#569DCE" transform="translate(747,367)"/>
<path d="M0 0 C0.66 0.33 1.32 0.66 2 1 C1.67 2.65 1.34 4.3 1 6 C-1 6 -3 6 -5 6 C-3.35 4.02 -1.7 2.04 0 0 Z " fill="#D6E7F3" transform="translate(718,654)"/>
<path d="M0 0 C2.64 0 5.28 0 8 0 C7.67 0.66 7.34 1.32 7 2 C4.35139573 2.59355614 1.70802678 2.74209269 -1 3 C-0.67 2.01 -0.34 1.02 0 0 Z " fill="#599FCF" transform="translate(678,646)"/>
<path d="M0 0 C2.64 0.33 5.28 0.66 8 1 C8 1.66 8 2.32 8 3 C2.25 3.125 2.25 3.125 0 2 C0 1.34 0 0.68 0 0 Z " fill="#4F99CC" transform="translate(643,504)"/>
<path d="M0 0 C0 0.66 0 1.32 0 2 C-3.2491277 4.3208055 -6.05879291 5.43697042 -10 6 C-7.35570758 3.077361 -4.105808 0 0 0 Z " fill="#6DABD4" transform="translate(304,291)"/>
<path d="M0 0 C3.0831351 1.19899698 6.06279492 2.47700477 9 4 C8.67 4.99 8.34 5.98 8 7 C6.66382648 6.02471263 5.3311249 5.04466681 4 4.0625 C3.2575 3.51722656 2.515 2.97195313 1.75 2.41015625 C1.1725 1.94480469 0.595 1.47945312 0 1 C0 0.67 0 0.34 0 0 Z " fill="#74AFD6" transform="translate(453,717)"/>
<path d="M0 0 C0.6875 1.6875 0.6875 1.6875 1 4 C-0.3125 6.75 -0.3125 6.75 -2 9 C-2.66 9 -3.32 9 -4 9 C-2.94124926 5.59687262 -1.99097846 2.98646769 0 0 Z " fill="#69A8D3" transform="translate(709,569)"/>
<path d="M0 0 C-0.33 0.99 -0.66 1.98 -1 3 C-2.98 3 -4.96 3 -7 3 C-7 2.34 -7 1.68 -7 1 C-4.53721199 -0.231394 -2.7204945 -0.07159196 0 0 Z " fill="#579DCE" transform="translate(660,389)"/>
<path d="M0 0 C0.66 0.33 1.32 0.66 2 1 C-0.36620011 3.61527381 -2.942048 5.26440562 -6 7 C-4.4911799 3.76681408 -3.29394556 1.64697278 0 0 Z " fill="#DAEAF4" transform="translate(732,656)"/>
<path d="M0 0 C-4.455 1.485 -4.455 1.485 -9 3 C-8.67 2.01 -8.34 1.02 -8 0 C-4.76565159 -1.33835107 -3.58579314 -0.89644829 0 0 Z " fill="#75B0D6" transform="translate(808,614)"/>
</svg>
