<?xml version="1.0" encoding="UTF-8"?>
<svg version="1.1" xmlns="http://www.w3.org/2000/svg" width="512" height="512">
<path d="M0 0 C168.96 0 337.92 0 512 0 C512 168.96 512 337.92 512 512 C343.04 512 174.08 512 0 512 C0 343.04 0 174.08 0 0 Z " fill="#000000" transform="translate(0,0)"/>
<path d="M0 0 C168.96 0 337.92 0 512 0 C512 46.78584935 512 46.78584935 502.52290344 56.3125 C501.14913254 57.48193664 499.77295059 58.6485461 498.39453125 59.8125 C496.98508508 61.15079441 495.58475273 62.49874358 494.19303894 63.85546875 C490.57698699 67.33102149 486.85332837 70.66062226 483.08703613 73.97174072 C479.25505896 77.38880812 475.55350616 80.94204846 471.83398438 84.48046875 C466.40042053 89.60731287 460.93249186 94.6906561 455.35083008 99.65625 C454.49414986 100.43013313 454.49414986 100.43013313 453.62016296 101.21965027 C447.67610479 106.44616066 442.84814246 107.58494106 435.078125 107.44140625 C429.2994009 106.61273135 425.47744903 103.63858393 421.55859375 99.46484375 C417.93385383 94.32453313 418.07140694 88.01183956 419 82 C420.76965006 77.65565415 423.67822001 74.35019523 426.6875 70.8125 C430.77176179 65.84515458 431.46255234 61.75064213 431.3125 55.4296875 C430.66346868 50.38346895 427.59672207 47.39958521 423.9375 44.1875 C420.31305899 41.48844818 417.72612505 40.81914659 413.3125 40.6875 C412.50425781 40.65011719 411.69601562 40.61273438 410.86328125 40.57421875 C403.74379718 41.6329142 398.56283143 45.85361859 393.7109375 50.8984375 C393.1374054 51.47781067 392.56387329 52.05718384 391.97296143 52.65411377 C390.73976289 53.90243141 389.51120266 55.1553454 388.28692627 56.41241455 C386.3445971 58.40620847 384.3896852 60.38687474 382.43115234 62.36474609 C378.2760541 66.56536214 374.13689794 70.78146856 370 75 C365.20286405 79.89179795 360.39927438 84.77687964 355.57843018 89.64532471 C353.66022866 91.58929803 351.7545577 93.54499031 349.84912109 95.50146484 C348.66303596 96.70209147 347.47637918 97.90215375 346.2890625 99.1015625 C345.50949188 99.91213104 345.50949188 99.91213104 344.71417236 100.73907471 C339.31727296 106.1389919 333.36500424 109.18807539 325.75 110.125 C319.74607396 110.88715641 316.44663287 112.27577807 312.21289062 116.6394043 C311.48533569 117.38324875 310.75778076 118.1270932 310.00817871 118.89347839 C309.23204224 119.69562271 308.45590576 120.49776703 307.65625 121.32421875 C306.00173111 123.008885 304.34676981 124.69311685 302.69140625 126.37695312 C300.08567446 129.03862412 297.48401663 131.70397229 294.89013672 134.37719727 C292.38566689 136.95390686 289.86603136 139.51495902 287.34375 142.07421875 C286.56761353 142.88243576 285.79147705 143.69065277 284.99182129 144.52336121 C284.26426636 145.25774918 283.53671143 145.99213715 282.78710938 146.7487793 C282.15075562 147.40226852 281.51440186 148.05575775 280.85876465 148.72904968 C279 150 279 150 276.91564941 149.77546692 C273.64167681 148.45014224 270.56264665 146.79504641 267.4375 145.15625 C260.86468486 142.03837615 253.37813981 142.07772055 246.4375 144.0625 C237.68340578 147.46997493 230.954889 154.74851517 224.43847656 161.28686523 C223.63564743 162.08458344 222.8328183 162.88230164 222.00566101 163.70419312 C219.37883968 166.31722304 216.75940241 168.93750402 214.140625 171.55859375 C212.30480403 173.39052331 210.46876119 175.22223055 208.63250732 177.0537262 C204.79635405 180.88244067 200.96400157 184.71490509 197.13427734 188.55004883 C192.72187943 192.96849494 188.30036028 197.37766083 183.87431931 201.78243679 C179.59453009 206.04242691 175.32318973 210.31078309 171.05504608 214.58244514 C169.24734961 216.38962954 167.43729968 218.19446309 165.62482452 219.99685478 C163.09061236 222.51868808 160.56618013 225.04993517 158.04394531 227.58374023 C157.2999498 228.32009201 156.55595428 229.05644379 155.78941345 229.81510925 C148.02274543 237.66047499 143.72703729 244.72962713 142.625 255.75 C142.87593206 263.70140957 145.81359509 271.87047759 151.3671875 277.60546875 C157.65383761 282.97468906 165.23565084 285.56732166 173.484375 285.30078125 C181.04555567 284.39672704 187.23559623 282.1081325 192.83317566 276.88244629 C193.69583227 276.07954666 194.55848888 275.27664703 195.44728661 274.44941711 C199.26168349 270.78937089 203.01862985 267.08109557 206.73168945 263.31835938 C207.54132141 262.50244827 208.35095337 261.68653717 209.18511963 260.84590149 C210.92500887 259.09227376 212.6638094 257.33756529 214.40160561 255.5818634 C217.16223703 252.79431692 219.92745712 250.01140059 222.69413757 247.2298584 C223.64836197 246.27049233 224.60257887 245.3111188 225.55678844 244.35173798 C226.03412469 243.87181617 226.51146094 243.39189436 227.00326192 242.89742947 C233.42645784 236.43843477 239.84473125 229.9746055 246.25268555 223.50048828 C251.06611941 218.63745875 255.89030173 213.7852859 260.72051048 208.93891907 C262.54723785 207.10235882 264.37032097 205.26216571 266.18950844 203.4181366 C288.45592849 180.85437613 310.03987261 166.77897756 342.6875 165.5625 C365.88300882 165.57394327 387.76869278 176.84864374 404.4296875 192.38671875 C417.59282497 205.76990867 427.17325162 222.24307148 430 241 C430.19142578 242.15628906 430.19142578 242.15628906 430.38671875 243.3359375 C430.69622882 245.56280218 430.87653213 247.75512972 431 250 C431.07927734 251.40765625 431.07927734 251.40765625 431.16015625 252.84375 C431.91484733 279.35637581 421.67716588 300.85451645 404 320 C400.98633214 323.15295298 397.92272789 326.25369412 394.84692383 329.34594727 C393.98052277 330.22052582 393.1141217 331.09510437 392.22146606 331.9961853 C389.3863134 334.85591573 386.54733386 337.71179335 383.70703125 340.56640625 C382.71891288 341.55989851 381.73079632 342.55339256 380.7426815 343.54688835 C376.62776998 347.68336024 372.51144479 351.81841681 368.39140797 355.94978428 C362.53698515 361.8204307 356.69122588 367.69940889 350.85723287 373.59036022 C346.72477094 377.76175662 342.58254788 381.92330395 338.43320483 386.07790798 C335.96850631 388.54622457 333.50799699 391.01837331 331.05796242 393.50125313 C321.06524582 403.62145047 311.58563775 413.17927348 299 420 C298.09977615 420.51087662 297.19955231 421.02175323 296.27204895 421.54811096 C277.91673822 431.76279127 252.01067476 433.36981589 231.91015625 427.96484375 C217.05626523 423.04013089 204.90252349 415.06503715 193 405 C194.44580966 401.68386118 196.24829792 399.50814272 198.80712891 396.96582031 C199.58778717 396.18531311 200.36844543 395.40480591 201.17276001 394.60064697 C202.01551483 393.76821472 202.85826965 392.93578247 203.7265625 392.078125 C205.02078629 390.78814606 205.02078629 390.78814606 206.34115601 389.47210693 C209.09778029 386.7266769 211.86127799 383.9882831 214.625 381.25 C216.49524857 379.38978217 218.36504589 377.52911054 220.234375 375.66796875 C224.8176936 371.10670055 229.40667478 366.55118989 234 362 C236.13053599 363.0554589 238.22898514 364.12807643 240.3046875 365.2890625 C248.67681472 369.64053288 256.5253493 370.39200411 265.76171875 368.40625 C279.67662385 363.68785204 291.17024678 348.02763947 301.30078125 337.9375 C302.60157151 336.64282303 302.60157151 336.64282303 303.92864037 335.32199097 C308.50851482 330.76285594 313.08519233 326.2005385 317.65942383 321.63574219 C322.36949243 316.93678248 327.09108998 312.24967148 331.81535053 307.56498718 C335.46378045 303.94272401 339.10327539 300.31158199 342.74043846 296.67800903 C344.47733188 294.94597216 346.21758941 293.21730174 347.96132851 291.49215698 C350.39954641 289.07835625 352.82475209 286.65215549 355.24731445 284.22265625 C355.96168671 283.52109406 356.67605896 282.81953186 357.41207886 282.09671021 C364.95352393 274.4765842 369.0852049 267.16553598 369.3125 256.375 C369.22477692 247.92726745 367.56646995 241.45436695 361.8125 235.125 C354.4351969 228.55531745 347.44319893 227.30632429 337.6484375 227.62890625 C323.45428395 229.07263707 314.74922234 240.07833087 305.22070312 249.71337891 C304.40625229 250.53250259 303.59180145 251.35162628 302.75267029 252.1955719 C301.0029306 253.95572824 299.25430193 255.71698963 297.50669861 257.47926712 C294.73391024 260.27428173 291.95713258 263.06529444 289.17883301 265.85482788 C281.28649415 273.78033657 273.39852152 281.7101562 265.52099609 289.65039062 C261.15363369 294.0524326 256.78080285 298.44896671 252.40198278 302.83961236 C250.09489991 305.1534143 247.79156833 307.47076018 245.49330139 309.79332352 C242.92890827 312.38436633 240.35519778 314.96581449 237.77929688 317.54541016 C237.03614731 318.3009166 236.29299774 319.05642303 235.52732849 319.83482361 C228.37256218 326.96276491 220.36805549 332.70968475 211.3125 337.1875 C210.63968994 337.52209229 209.96687988 337.85668457 209.27368164 338.20141602 C189.53087582 347.64582925 164.64954419 349.24674007 143.95996094 342.01855469 C117.60564951 332.30387408 100.00555658 314.07394866 87.96386719 289.10473633 C86.58504892 286.09389734 85.2968435 283.04703465 84 280 C83.56754974 280.4413327 83.13509949 280.88266541 82.68954468 281.33737183 C78.12599856 285.99043294 73.54762238 290.62853764 68.9609375 295.25878906 C67.25831309 296.98134601 65.55931693 298.70749801 63.86425781 300.4375 C51.49766464 313.05230106 39.57305822 324.65294629 23.25 331.9375 C22.11111328 332.47600586 22.11111328 332.47600586 20.94921875 333.02539062 C14.28168327 336.09967729 7.40948636 339 0 339 C0 227.13 0 115.26 0 0 Z " fill="#110627" transform="translate(0,0)"/>
<path d="M0 0 C0.66644531 0.66515625 1.33289063 1.3303125 2.01953125 2.015625 C2.01953125 5.85819905 1.06341576 6.35969517 -1.58886719 9.04394531 C-2.77074615 10.24969208 -2.77074615 10.24969208 -3.97650146 11.47979736 C-4.83890442 12.34240173 -5.70130737 13.2050061 -6.58984375 14.09375 C-7.46819885 14.97971863 -8.34655396 15.86568726 -9.25152588 16.77850342 C-11.11410843 18.6519075 -12.97969219 20.52167889 -14.85058594 22.38671875 C-17.24969054 24.77992224 -19.63003466 27.19087487 -22.00588608 29.60713577 C-24.2724576 31.90573672 -26.55715782 34.18616831 -28.83984375 36.46875 C-29.69414978 37.33945129 -30.54845581 38.21015259 -31.4286499 39.10723877 C-32.62944183 40.29407257 -32.62944183 40.29407257 -33.85449219 41.50488281 C-34.90706207 42.56053436 -34.90706207 42.56053436 -35.980896 43.63751221 C-37.98046875 45.015625 -37.98046875 45.015625 -40.08599854 44.80731201 C-43.33921526 43.44781351 -46.42264514 41.80814226 -49.54296875 40.171875 C-56.11578389 37.05400115 -63.60232894 37.09334555 -70.54296875 39.078125 C-79.29706297 42.48559993 -86.02557975 49.76414017 -92.54199219 56.30249023 C-93.34482132 57.10020844 -94.14765045 57.89792664 -94.97480774 58.71981812 C-97.60162907 61.33284804 -100.22106634 63.95312902 -102.83984375 66.57421875 C-104.67566472 68.40614831 -106.51170756 70.23785555 -108.34796143 72.0693512 C-112.1841147 75.89806567 -116.01646718 79.73053009 -119.84619141 83.56567383 C-124.25858932 87.98411994 -128.68010847 92.39328583 -133.10614944 96.79806179 C-137.38593866 101.05805191 -141.65727902 105.32640809 -145.92542267 109.59807014 C-147.73311914 111.40525454 -149.54316907 113.21008809 -151.35564423 115.01247978 C-153.88985639 117.53431308 -156.41428862 120.06556017 -158.93652344 122.59936523 C-159.68051895 123.33571701 -160.42451447 124.07206879 -161.1910553 124.83073425 C-168.95772332 132.67609999 -173.25343146 139.74525213 -174.35546875 150.765625 C-174.10453669 158.71703457 -171.16687366 166.88610259 -165.61328125 172.62109375 C-159.32663114 177.99031406 -151.74481791 180.58294666 -143.49609375 180.31640625 C-135.93491308 179.41235204 -129.74487252 177.1237575 -124.14729309 171.89807129 C-123.28463648 171.09517166 -122.42197987 170.29227203 -121.53318214 169.46504211 C-117.71878526 165.80499589 -113.9618389 162.09672057 -110.2487793 158.33398438 C-109.43914734 157.51807327 -108.62951538 156.70216217 -107.79534912 155.86152649 C-106.05545988 154.10789876 -104.31665935 152.35319029 -102.57886314 150.5974884 C-99.81823172 147.80994192 -97.05301163 145.02702559 -94.28633118 142.2454834 C-93.33210678 141.28611733 -92.37788988 140.3267438 -91.42368031 139.36736298 C-90.94634406 138.88744117 -90.46900781 138.40751936 -89.97720683 137.91305447 C-83.55401091 131.45405977 -77.1357375 124.9902305 -70.7277832 118.51611328 C-65.91434934 113.65308375 -61.09016702 108.8009109 -56.25995827 103.95454407 C-54.4332309 102.11798382 -52.61014778 100.27779071 -50.79096031 98.4337616 C-28.52454026 75.87000113 -6.94059614 61.79460256 25.70703125 60.578125 C48.90254007 60.58956827 70.78822403 71.86426874 87.44921875 87.40234375 C100.61235622 100.78553367 110.19278287 117.25869648 113.01953125 136.015625 C113.21095703 137.17191406 113.21095703 137.17191406 113.40625 138.3515625 C113.71576007 140.57842718 113.89606338 142.77075472 114.01953125 145.015625 C114.09880859 146.42328125 114.09880859 146.42328125 114.1796875 147.859375 C114.93437858 174.37200081 104.69669713 195.87014145 87.01953125 215.015625 C84.00586339 218.16857798 80.94225914 221.26931912 77.86645508 224.36157227 C76.56685349 225.67344009 76.56685349 225.67344009 75.24099731 227.0118103 C72.40584465 229.87154073 69.56686511 232.72741835 66.7265625 235.58203125 C65.73844413 236.57552351 64.75032757 237.56901756 63.76221275 238.56251335 C59.64730123 242.69898524 55.53097604 246.83404181 51.41093922 250.96540928 C45.5565164 256.8360557 39.71075713 262.71503389 33.87676412 268.60598522 C29.74430219 272.77738162 25.60207913 276.93892895 21.45273608 281.09353298 C18.98803756 283.56184957 16.52752824 286.03399831 14.07749367 288.51687813 C4.08477707 298.63707547 -5.394831 308.19489848 -17.98046875 315.015625 C-18.8806926 315.52650162 -19.78091644 316.03737823 -20.7084198 316.56373596 C-39.06373053 326.77841627 -64.96979399 328.38544089 -85.0703125 322.98046875 C-99.92420352 318.05575589 -112.07794526 310.08066215 -123.98046875 300.015625 C-122.53465909 296.69948618 -120.73217083 294.52376772 -118.17333984 291.98144531 C-117.39268158 291.20093811 -116.61202332 290.42043091 -115.80770874 289.61627197 C-114.96495392 288.78383972 -114.1221991 287.95140747 -113.25390625 287.09375 C-111.95968246 285.80377106 -111.95968246 285.80377106 -110.63931274 284.48773193 C-107.88268846 281.7423019 -105.11919076 279.0039081 -102.35546875 276.265625 C-100.48522018 274.40540717 -98.61542286 272.54473554 -96.74609375 270.68359375 C-92.16277515 266.12232555 -87.57379397 261.56681489 -82.98046875 257.015625 C-80.84993276 258.0710839 -78.75148361 259.14370143 -76.67578125 260.3046875 C-68.30365403 264.65615788 -60.45511945 265.40762911 -51.21875 263.421875 C-37.3038449 258.70347704 -25.81022197 243.04326447 -15.6796875 232.953125 C-14.37889724 231.65844803 -14.37889724 231.65844803 -13.05182838 230.33761597 C-8.47195393 225.77848094 -3.89527642 221.2161635 0.67895508 216.65136719 C5.38902368 211.95240748 10.11062123 207.26529648 14.83488178 202.58061218 C18.4833117 198.95834901 22.12280664 195.32720699 25.75996971 191.69363403 C27.49686313 189.96159716 29.23712066 188.23292674 30.98085976 186.50778198 C33.41907766 184.09398125 35.84428334 181.66778049 38.2668457 179.23828125 C38.98121796 178.53671906 39.69559021 177.83515686 40.43161011 177.11233521 C47.97305518 169.4922092 52.10473615 162.18116098 52.33203125 151.390625 C52.24430817 142.94289245 50.5860012 136.46999195 44.83203125 130.140625 C37.45472815 123.57094245 30.46273018 122.32194929 20.66796875 122.64453125 C6.4738152 124.08826207 -2.23124641 135.09395587 -11.75976562 144.72900391 C-12.57421646 145.54812759 -13.3886673 146.36725128 -14.22779846 147.2111969 C-15.97753815 148.97135324 -17.72616682 150.73261463 -19.47377014 152.49489212 C-22.24655851 155.28990673 -25.02333617 158.08091944 -27.80163574 160.87045288 C-35.6939746 168.79596157 -43.58194723 176.7257812 -51.45947266 184.66601562 C-55.82683506 189.0680576 -60.1996659 193.46459171 -64.57848597 197.85523736 C-66.88556884 200.1690393 -69.18890042 202.48638518 -71.48716736 204.80894852 C-74.05156048 207.39999133 -76.62527097 209.98143949 -79.20117188 212.56103516 C-79.94432144 213.3165416 -80.68747101 214.07204803 -81.45314026 214.85044861 C-88.60790657 221.97838991 -96.61241326 227.72530975 -105.66796875 232.203125 C-106.34077881 232.53771729 -107.01358887 232.87230957 -107.70678711 233.21704102 C-127.44959293 242.66145425 -152.33092456 244.26236507 -173.02050781 237.03417969 C-198.10723013 227.78675558 -216.73026976 210.29040076 -228.18359375 186.19140625 C-237.72205125 164.95792732 -237.18463153 140.94923838 -229.6953125 119.30078125 C-222.95958681 102.32074852 -210.80832767 89.71093664 -198.1027832 76.9609375 C-197.26564285 76.11722595 -196.4285025 75.2735144 -195.56599426 74.40423584 C-192.82810898 71.64683547 -190.08639401 68.89329174 -187.34375 66.140625 C-186.38903636 65.18185267 -185.43435204 64.22305115 -184.47969627 63.26422119 C-179.99291774 58.75846825 -175.50378143 54.25508092 -171.01170093 49.75461388 C-165.86995961 44.60310661 -160.73661091 39.44342209 -155.61022407 34.27663612 C-151.61614324 30.25218907 -147.61422019 26.23564534 -143.60657471 22.22470665 C-141.22700944 19.84281586 -138.85183002 17.45695376 -136.4828434 15.06451416 C-96.56277828 -25.22623454 -46.6746819 -37.33974552 0 0 Z " fill="#FDFDFD" transform="translate(316.98046875,104.984375)"/>
<path d="M0 0 C6.88265576 4.9304843 11.21751663 10.14127055 13.1484375 18.5390625 C14.20480476 28.02458703 13.64116375 36.8423369 7.57090759 44.53935242 C-0.70228952 53.65113312 -9.42166605 62.33293315 -18.09765625 71.05859375 C-18.97055864 71.93681982 -19.84346104 72.81504589 -20.74281502 73.71988487 C-24.8824884 77.88341131 -29.02444847 82.04464017 -33.16961044 86.20270234 C-37.92304196 90.9712325 -42.66624455 95.74965122 -47.40131706 100.53641015 C-51.53223893 104.71085376 -55.67694694 108.87139744 -59.82649422 113.02731895 C-61.5781375 114.78565644 -63.32553848 116.5482312 -65.06847954 118.31519508 C-67.508505 120.78695143 -69.96395715 123.24234889 -72.42358398 125.69458008 C-73.13090164 126.41830307 -73.8382193 127.14202606 -74.56697083 127.88768005 C-83.12730624 136.34364733 -92.08008827 139.98506921 -104.05859375 139.97265625 C-109.20023974 139.38488827 -112.91648957 137.46228374 -117.328125 134.8515625 C-119.96895011 133.23143636 -119.96895011 133.23143636 -123.8515625 133.5390625 C-125.91030106 135.01010975 -125.91030106 135.01010975 -127.86987305 137.08740234 C-128.64715256 137.86175629 -129.42443207 138.63611023 -130.2252655 139.43392944 C-131.0545607 140.28073273 -131.8838559 141.12753601 -132.73828125 142 C-133.59589554 142.8609024 -134.45350983 143.72180481 -135.33711243 144.60879517 C-137.14972827 146.43184299 -138.95756756 148.25965051 -140.76098633 150.09179688 C-143.52950052 152.90434843 -146.31112354 155.7033617 -149.09570312 158.5 C-150.85234016 160.27006191 -152.60822538 162.04087032 -154.36328125 163.8125 C-155.19864914 164.65525482 -156.03401703 165.49800964 -156.8946991 166.36630249 C-158.04643364 167.53728989 -158.04643364 167.53728989 -159.22143555 168.73193359 C-159.89998093 169.42032318 -160.57852631 170.10871277 -161.27763367 170.81796265 C-162.92922836 172.46640881 -162.92922836 172.46640881 -163.8515625 174.5390625 C-163.2328125 174.8071875 -162.6140625 175.0753125 -161.9765625 175.3515625 C-159.8515625 176.5390625 -159.8515625 176.5390625 -157.8515625 179.5390625 C-158.5115625 179.5390625 -159.1715625 179.5390625 -159.8515625 179.5390625 C-160.11493408 180.12913086 -160.37830566 180.71919922 -160.6496582 181.32714844 C-161.90357902 183.63479065 -163.20351511 185.10633644 -165.08203125 186.9296875 C-166.04012695 187.87134766 -166.04012695 187.87134766 -167.01757812 188.83203125 C-167.68466797 189.47785156 -168.35175781 190.12367188 -169.0390625 190.7890625 C-172.83008379 194.47823546 -176.56902271 198.14608352 -179.99609375 202.1796875 C-185.96912742 209.11742055 -192.6670626 215.40732447 -199.17236328 221.83935547 C-206.96109091 229.44067853 -206.96109091 229.44067853 -214.2890625 237.4765625 C-220.47112212 244.74912208 -227.53885028 251.27654495 -234.31787109 257.98486328 C-243.72212787 267.21801628 -243.72212787 267.21801628 -252.53710938 277.00585938 C-252.97087891 277.51181641 -253.40464844 278.01777344 -253.8515625 278.5390625 C-254.28793187 279.05824407 -254.72430124 279.57742563 -255.17389393 280.11233997 C-257.27298916 281.89745207 -258.28275115 281.91008688 -261.00871277 281.89982605 C-261.85249827 281.90395854 -262.69628378 281.90809103 -263.56563854 281.91234875 C-264.49168046 281.90155442 -265.41772238 281.8907601 -266.37182617 281.87963867 C-267.36340634 281.88000028 -268.35498652 281.88036188 -269.37661457 281.88073444 C-272.59112444 281.87849258 -275.80511455 281.85563423 -279.01953125 281.83203125 C-281.00215402 281.82762125 -282.98478027 281.82456019 -284.96740723 281.82287598 C-292.32467886 281.80713744 -299.68187577 281.7652539 -307.0390625 281.7265625 C-323.4771875 281.6646875 -339.9153125 281.6028125 -356.8515625 281.5390625 C-356.8515625 224.4490625 -356.8515625 167.3590625 -356.8515625 108.5390625 C-351.5715625 106.8890625 -346.2915625 105.2390625 -340.8515625 103.5390625 C-337.82266446 102.32798675 -334.95162031 101.14599468 -332.0390625 99.7265625 C-331.33386475 99.3874585 -330.62866699 99.04835449 -329.90209961 98.69897461 C-313.08818331 90.36983198 -300.28241794 76.11469622 -287.2265625 62.9765625 C-285.82705827 61.57203108 -284.42732037 60.16773244 -283.02734375 58.76367188 C-279.63271965 55.35814372 -276.24126344 51.94949068 -272.8515625 48.5390625 C-270.32546412 51.76338293 -268.99508488 54.58920833 -267.6640625 58.4765625 C-262.86327041 71.21219494 -255.3436953 81.03325227 -245.8515625 90.5390625 C-245.12195313 91.28027344 -244.39234375 92.02148438 -243.640625 92.78515625 C-226.66839097 108.96871769 -203.32916537 115.32650923 -180.40625 114.78515625 C-154.2978895 113.67380927 -133.67085267 100.83172169 -115.68920898 82.5402832 C-114.83413757 81.67907867 -113.97906616 80.81787415 -113.0980835 79.93057251 C-110.7827488 77.59735286 -108.47186187 75.25982782 -106.16231799 72.9208796 C-103.72779194 70.45866426 -101.28574046 68.00394087 -98.8440094 65.5488739 C-90.5537695 57.21065017 -82.275658 48.86044618 -74.00610352 40.50170898 C-69.42338581 35.86972926 -64.83337437 31.24509958 -60.23558861 26.6280753 C-57.81126894 24.19287957 -55.39095631 21.75397913 -52.97991753 19.30562782 C-50.29058705 16.57772703 -47.58903134 13.86249876 -44.88452148 11.1496582 C-43.70829979 9.94715172 -43.70829979 9.94715172 -42.50831604 8.72035217 C-31.18763023 -2.56079299 -14.9742493 -8.90495224 0 0 Z " fill="#000000" transform="translate(356.8515625,230.4609375)"/>
<path d="M0 0 C0.99 0.33 1.98 0.66 3 1 C-22.08 26.08 -47.16 51.16 -73 77 C-69.63594676 87.09215972 -64.84194167 91.91970348 -55.5625 96.8125 C-46.94821128 99.68950516 -37.5211308 99.43815676 -29.37182617 95.57519531 C-22.63219175 92.10769204 -17.8488883 87.55683293 -12.66015625 82.10546875 C-11.72362323 81.1474846 -10.78538548 80.19116444 -9.8455658 79.23640442 C-7.39630053 76.74205729 -4.96399567 74.23192971 -2.53704834 71.71588135 C34.66460961 33.1560603 34.66460961 33.1560603 59.375 32.6875 C76.64226623 32.66960646 91.54555514 39.25541332 104.07421875 50.984375 C136.78859877 85.2249837 108 145.64337486 108 193 C-27.96 193 -163.92 193 -304 193 C-294.20542251 181.57299293 -283.94592856 170.82193491 -273.25 160.25 C-264.63108493 151.87072521 -264.63108493 151.87072521 -256.515625 143.015625 C-250.69177979 136.16891521 -244.06574482 130.0143205 -237.67919922 123.69970703 C-228.80557875 114.93469836 -228.80557875 114.93469836 -220.45410156 105.67675781 C-217.70231589 102.50361073 -214.66454219 99.62359692 -211.65625 96.6953125 C-208.98675315 94.10863427 -208.98675315 94.10863427 -207 91 C-202.63885753 91.53146539 -200.28777652 93.04015357 -196.875 95.75 C-182.2205512 106.73593217 -165.77997323 110.17115206 -147.8125 110.25 C-146.65685547 110.270625 -145.50121094 110.29125 -144.31054688 110.3125 C-120.98891211 110.41725748 -99.92938155 99.71931598 -83.45663452 83.69714355 C-81.89487471 82.14107697 -80.3384308 80.57966152 -78.78662109 79.01367188 C-77.92684662 78.15418945 -77.06707214 77.29470703 -76.1812439 76.40917969 C-73.85595144 74.08274402 -71.5351169 71.75197553 -69.21630049 69.41908836 C-66.78029488 66.97046197 -64.33851022 64.5276114 -61.89736938 62.08410645 C-57.28958951 57.47014479 -52.68692557 52.8511154 -48.08614123 48.23017931 C-42.84212816 42.9637036 -37.59234039 37.70300014 -32.34209323 32.44274044 C-21.55502059 21.63484074 -10.77511377 10.81982315 0 0 Z " fill="#14072E" transform="translate(404,319)"/>
<path d="M0 0 C1.4187958 -0.00384491 1.4187958 -0.00384491 2.86625415 -0.0077675 C6.04941963 -0.01272596 9.23211533 0.00382166 12.41523743 0.02018738 C14.69151295 0.0210332 16.96778929 0.02055938 19.24406433 0.01885986 C25.43590919 0.01799675 31.6275808 0.03567369 37.81938529 0.05658174 C44.28563806 0.07529591 50.7518945 0.07709482 57.21817017 0.08065796 C68.07539741 0.08893223 78.93255339 0.10768929 89.78974915 0.13444519 C100.97333965 0.1619768 112.15691285 0.18321477 123.3405304 0.19596863 C124.0297382 0.1967568 124.71894601 0.19754497 125.4290389 0.19835702 C128.88654735 0.2022721 132.34405592 0.20606323 135.80156457 0.20979273 C164.49094718 0.24089943 193.18026266 0.29396746 221.86958313 0.36076355 C224.45946992 43.21783879 224.45946992 43.21783879 216.16572571 52.8802948 C213.68281959 55.51776384 211.02903153 57.83853419 208.26411438 60.17326355 C206.85466821 61.51155796 205.45433585 62.85950713 204.06262207 64.2162323 C200.44657012 67.69178504 196.7229115 71.02138581 192.95661926 74.33250427 C189.12464209 77.74957167 185.42308929 81.30281201 181.7035675 84.8412323 C176.27000366 89.96807642 170.80207499 95.05141965 165.22041321 100.01701355 C164.36373299 100.79089668 164.36373299 100.79089668 163.48974609 101.58041382 C157.54568792 106.80692421 152.71772559 107.94570461 144.94770813 107.8021698 C139.16898403 106.9734949 135.34703216 103.99934748 131.42817688 99.8256073 C127.80343696 94.68529668 127.94099007 88.37260311 128.86958313 82.36076355 C130.63923319 78.01641769 133.54780314 74.71095878 136.55708313 71.17326355 C140.64134492 66.20591813 141.33213547 62.11140568 141.18208313 55.79045105 C140.5330518 50.7442325 137.4663052 47.76034876 133.80708313 44.54826355 C130.18264212 41.84921173 127.59570818 41.17991014 123.18208313 41.04826355 C122.37384094 41.01088074 121.56559875 40.97349792 120.73286438 40.9349823 C113.61338031 41.99367775 108.43241456 46.21438214 103.58052063 51.25920105 C103.00698853 51.83857422 102.43345642 52.41794739 101.84254456 53.01487732 C100.60934602 54.26319496 99.38078579 55.51610895 98.1565094 56.7731781 C96.21418023 58.76697202 94.25926833 60.74763829 92.30073547 62.72550964 C88.14563723 66.92612569 84.00648107 71.14223211 79.86958313 75.36076355 C75.07244718 80.2525615 70.26885751 85.13764319 65.44801331 90.00608826 C63.52981179 91.95006158 61.62414083 93.90575386 59.71870422 95.86222839 C58.53261909 97.06285502 57.34596231 98.2629173 56.15864563 99.46232605 C55.63893188 100.00270508 55.11921814 100.54308411 54.58375549 101.09983826 C49.10840393 106.57825148 43.06881597 109.56086816 35.36958313 110.61076355 C34.32802063 110.7602948 33.28645813 110.90982605 32.21333313 111.06388855 C31.43989563 111.1618573 30.66645813 111.25982605 29.86958313 111.36076355 C29.49446594 110.63631042 29.11934875 109.9118573 28.73286438 109.16545105 C26.593433 105.94509103 24.10595644 103.78583867 21.05708313 101.48576355 C20.49392395 101.05521667 19.93076477 100.6246698 19.35054016 100.18107605 C14.13773243 96.32420097 8.62945921 93.47549214 2.76802063 90.73576355 C-0.13041687 89.36076355 -0.13041687 89.36076355 -3.13041687 87.36076355 C-3.46901168 84.77707159 -3.60609924 82.50723308 -3.56791687 79.92326355 C-3.55329407 78.84117615 -3.55329407 78.84117615 -3.53837585 77.73722839 C-3.02687911 62.16345293 6.29865862 53.76518437 16.83833313 43.5052948 C17.44955521 42.90884155 18.06077728 42.31238831 18.69052124 41.69786072 C21.22769886 39.22436091 23.76492833 36.75157979 26.32563782 34.30241394 C28.218829 32.48798674 30.09222945 30.65495538 31.96333313 28.8177948 C32.54240417 28.27282852 33.12147522 27.72786224 33.71809387 27.16638184 C37.47097283 23.43949539 38.6380635 20.8390537 38.86958313 15.36076355 C36.5853638 14.52055721 36.5853638 14.52055721 33.86958313 14.36076355 C31.60572866 15.82856272 31.60572866 15.82856272 29.61958313 18.09513855 C28.84614563 18.89693542 28.07270813 19.6987323 27.27583313 20.52482605 C26.48177063 21.37818542 25.68770813 22.2315448 24.86958313 23.11076355 C23.29087042 24.776613 21.70767566 26.43822867 20.11958313 28.09513855 C19.42348938 28.83989441 18.72739563 29.58465027 18.01020813 30.35197449 C12.8573082 35.18751973 8.02810754 36.75552932 1.02192688 36.6381073 C-4.26829273 35.95642746 -8.54575289 33.35814656 -12.00541687 29.36076355 C-16.28423439 23.32008 -16.97546391 18.73201723 -16.13041687 11.36076355 C-13.13475391 2.32950379 -9.40540643 -0.09234029 0 0 Z " fill="#2F2F66" transform="translate(290.1304168701172,-0.3607635498046875)"/>
<path d="M0 0 C-3.63987193 4.4613708 -7.51974812 8.58302866 -11.625 12.6171875 C-12.13788574 13.12219788 -12.65077148 13.62720825 -13.17919922 14.14752197 C-15.32213136 16.2540955 -17.46763534 18.35785033 -19.62304688 20.45166016 C-32.21540278 32.04671983 -32.21540278 32.04671983 -37.3125 47.6875 C-37.23409265 54.41092993 -34.88933751 58.70215708 -30.6875 63.8125 C-24.57495395 68.78782818 -19.55264006 69.47319447 -11.81640625 69.30859375 C-8.39634941 68.93385798 -5.92735883 67.77182245 -3 66 C-2.34 66.33 -1.68 66.66 -1 67 C-1.6798999 67.65895264 -2.3597998 68.31790527 -3.06030273 68.99682617 C-5.63746196 71.50028246 -8.20028852 74.01802694 -10.75952148 76.53979492 C-11.85834163 77.61879058 -12.96075791 78.69413908 -14.06713867 79.76538086 C-31.15614982 96.32594601 -45.50240346 117.5725616 -46.16796875 142.21484375 C-46.17982456 143.78903132 -46.18621281 145.36326831 -46.1875 146.9375 C-46.20586914 148.06768555 -46.20586914 148.06768555 -46.22460938 149.22070312 C-46.22654297 150.00251953 -46.22847656 150.78433594 -46.23046875 151.58984375 C-46.23570557 152.43393799 -46.24094238 153.27803223 -46.24633789 154.14770508 C-46.0921771 157.12611479 -46.0921771 157.12611479 -44.95483398 160.3425293 C-43.83807646 164.39715582 -42.97411037 167.88676724 -44 172 C-48.12128439 179.0632266 -54.73400597 184.45817287 -60.6875 189.9375 C-62.31294109 191.50333349 -63.93473093 193.07296662 -65.55273438 194.64648438 C-68.51665624 197.49249454 -71.48320905 200.33406427 -74.5065918 203.11694336 C-75.10996872 203.67570663 -75.71334564 204.23446991 -76.33500671 204.81016541 C-78 206 -78 206 -81 206 C-83.03310578 202.35083578 -85.0213644 198.67895762 -87 195 C-87.57621094 193.95070313 -88.15242188 192.90140625 -88.74609375 191.8203125 C-104.90818398 161.22392787 -108.1382593 123.65404069 -98.26855469 90.54638672 C-92.94331532 73.69652556 -84.94417364 58.82535099 -74 45 C-73.13673527 43.73532927 -72.28099692 42.46544014 -71.4375 41.1875 C-68.52451294 37.11902808 -64.84749945 34.16106401 -61 31 C-59.82874932 29.99558146 -58.65824022 28.99029784 -57.48828125 27.984375 C-48.55931143 20.40726373 -39.4663253 14.2489468 -29 9 C-27.50146484 8.24783203 -27.50146484 8.24783203 -25.97265625 7.48046875 C-17.77215212 3.58611169 -9.2041828 -0.36707967 0 0 Z " fill="#45257C" transform="translate(129,107)"/>
<path d="M0 0 C1.33901367 0.0009668 1.33901367 0.0009668 2.70507812 0.00195312 C9.2641129 0.04637097 9.2641129 0.04637097 12.6875 1.1875 C12.6875 41.1175 12.6875 81.0475 12.6875 122.1875 C-3.07791892 126.12885473 -19.80797767 122.42389672 -33.59423828 114.30322266 C-47.62192925 105.19459126 -57.68630522 90.45397068 -61.3125 74.1875 C-61.73876542 70.05306639 -61.78974139 65.96642195 -61.75 61.8125 C-61.74242676 60.70632324 -61.73485352 59.60014648 -61.72705078 58.46044922 C-61.57076623 50.74090498 -60.82170155 44.16190058 -57.3125 37.1875 C-56.91160156 36.28773438 -56.51070313 35.38796875 -56.09765625 34.4609375 C-48.91061235 19.67020946 -36.40750247 9.33408687 -21.3671875 3.23046875 C-14.00442219 0.71658341 -7.73974581 -0.1085278 0 0 Z " fill="#151B26" transform="translate(499.3125,180.8125)"/>
<path d="M0 0 C0 3.59804205 -1.01784989 4.38639482 -3.44274902 6.87155151 C-4.20464539 7.62905197 -4.20464539 7.62905197 -4.98193359 8.40185547 C-5.51207062 8.94046204 -6.04220764 9.4790686 -6.58840942 10.03399658 C-8.35060335 11.81966228 -10.1238587 13.59383474 -11.8984375 15.3671875 C-13.13031055 16.60616176 -14.3618839 17.84543405 -15.59317017 19.08499146 C-18.18241467 21.6877083 -20.77755362 24.28437866 -23.37646484 26.87744141 C-26.68964418 30.18475671 -29.98431562 33.50983844 -33.27420616 36.84029961 C-35.81701938 39.40911445 -38.37137559 41.9662115 -40.92903519 44.52023697 C-42.14729124 45.74017616 -43.36161128 46.96406016 -44.57172775 48.19207382 C-53.67440885 57.41434685 -62.0979073 65.07422198 -75.75 65.25 C-81.31879364 65.20968815 -85.266042 64.97248526 -90 62 C-90.33 61.01 -90.66 60.02 -91 59 C-90.55084229 58.62157959 -90.10168457 58.24315918 -89.63891602 57.85327148 C-83.96708291 52.99058293 -78.64999035 47.80363729 -73.3815918 42.51196289 C-71.93974779 41.06475615 -70.49262884 39.62297974 -69.04492188 38.18164062 C-64.44809157 33.58801077 -59.9917017 28.93119731 -55.7590332 23.99926758 C-52.2017911 19.95620643 -48.40903186 16.14186771 -44.625 12.3125 C-43.42617188 11.07016602 -43.42617188 11.07016602 -42.203125 9.80273438 C-30.50919805 -2.01418695 -16.02491965 -7.69196143 0 0 Z " fill="#160935" transform="translate(332,305)"/>
<path d="M0 0 C0.33 0 0.66 0 1 0 C1 21.12 1 42.24 1 64 C-19.79 64 -40.58 64 -62 64 C-58.21423875 59.58327855 -54.50726647 55.3653545 -50.39355469 51.29589844 C-49.8691983 50.77300232 -49.34484192 50.2501062 -48.80459595 49.71136475 C-47.67957733 48.59011686 -46.55340637 47.47002417 -45.42617035 46.35100555 C-43.6416573 44.57937545 -41.86039179 42.80453553 -40.07989502 41.02886963 C-36.30607927 37.26641337 -32.52832355 33.50792871 -28.75 29.75 C-24.35549574 25.37912062 -19.96263446 21.00661567 -15.57395172 16.62989044 C-13.81995139 14.88236619 -12.06296564 13.13788181 -10.30584717 11.39349365 C-9.23337324 10.32465133 -8.16103894 9.25566888 -7.08886719 8.18652344 C-6.60054413 7.7033667 -6.11222107 7.22020996 -5.60910034 6.72241211 C-3.45099883 4.56464985 -1.7025038 2.5537557 0 0 Z " fill="#000000" transform="translate(511,448)"/>
<path d="M0 0 C0 9.24 0 18.48 0 28 C-13.2 28 -26.4 28 -40 28 C-16 0 -16 0 0 0 Z " fill="#180939" transform="translate(512,484)"/>
<path d="M0 0 C0.99 0.33 1.98 0.66 3 1 C2.55200232 1.44246693 2.10400463 1.88493385 1.64243126 2.34080887 C-9.29260605 13.14293521 -20.21065622 23.96190596 -31.11045265 34.79957962 C-36.38207441 40.04035533 -41.65913804 45.27541677 -46.94970703 50.49707031 C-51.56472304 55.05199952 -56.1688433 59.61762705 -60.76056898 64.19603801 C-63.18887561 66.61657011 -65.62205041 69.03166959 -68.06837845 71.43399811 C-70.80679196 74.12855729 -73.52554579 76.84162464 -76.24072266 79.55957031 C-77.44266266 80.72915283 -77.44266266 80.72915283 -78.66888428 81.92236328 C-84.72975662 88.05000525 -90.98699762 96.06543629 -91.5859375 105.015625 C-91.51632813 106.08296875 -91.44671875 107.1503125 -91.375 108.25 C-91.32085937 109.34828125 -91.26671875 110.4465625 -91.2109375 111.578125 C-91.14132813 112.37734375 -91.07171875 113.1765625 -91 114 C-91.99 114.495 -91.99 114.495 -93 115 C-95.4298543 107.7104371 -93.9939434 100.81116738 -91 94 C-87.10147148 87.14918319 -82.09948476 81.68102695 -76.51611328 76.17553711 C-75.68618362 75.34516937 -74.85625397 74.51480164 -74.00117493 73.65927124 C-71.28127753 70.94144853 -68.55094059 68.2343813 -65.8203125 65.52734375 C-63.9225078 63.63513968 -62.02530413 61.74235165 -60.12887573 59.84877014 C-55.6620455 55.3912226 -51.18763145 50.9413706 -46.71036518 46.49430805 C-41.60882143 41.42642666 -36.5159074 36.3499099 -31.42366052 31.2726897 C-20.95860872 20.83890125 -10.48288913 10.41586782 0 0 Z " fill="#252525" transform="translate(236,149)"/>
<path d="M0 0 C-1.1067355 3.32020651 -1.90181868 3.99597364 -4.52954102 6.16163635 C-9.08996794 10.03444911 -13.30861591 14.17479547 -17.52734375 18.41381836 C-18.33805832 19.2243869 -19.14877289 20.03495544 -19.98405457 20.87008667 C-22.63758302 23.52430646 -25.28756133 26.18204039 -27.9375 28.83984375 C-29.78672766 30.69093836 -31.63617763 32.54181092 -33.48583984 34.39247131 C-37.84021024 38.74993542 -42.1920278 43.10993965 -46.54290771 47.47088867 C-51.50109944 52.44030278 -56.46217039 57.4068383 -61.42347145 62.37314785 C-71.61882819 72.57892453 -81.8106094 82.78826679 -92 93 C-92.66 92.34 -93.32 91.68 -94 91 C-82.45069408 79.42734317 -70.89853415 67.85754418 -59.3429594 56.29114723 C-53.97768576 50.9207153 -48.61335356 45.54934926 -43.2512207 40.17578125 C-38.57808564 35.49268511 -33.90320084 30.81134401 -29.22619849 26.13211 C-26.7493835 23.65399033 -24.27345905 21.1749953 -21.7996273 18.69389725 C-19.03930458 15.92553244 -16.2750773 13.16108709 -13.51049805 10.39697266 C-12.68906815 9.57194748 -11.86763824 8.7469223 -11.02131653 7.89689636 C-10.26833282 7.14528732 -9.51534912 6.39367828 -8.73954773 5.61929321 C-8.0859965 4.96482019 -7.43244528 4.31034718 -6.75908947 3.63604164 C-2.84957861 0 -2.84957861 0 0 0 Z " fill="#242424" transform="translate(326,231)"/>
<path d="M0 0 C0.99 0.33 1.98 0.66 3 1 C-26.04 30.04 -55.08 59.08 -85 89 C-85.66 88.34 -86.32 87.68 -87 87 C-58.29 58.29 -29.58 29.58 0 0 Z " fill="#242424" transform="translate(404,319)"/>
<path d="M0 0 C0.66 0 1.32 0 2 0 C1.93456227 5.62764512 -0.52802097 8.09659485 -4.2971344 11.86361694 C-5.03568161 12.57635773 -5.77422882 13.28909851 -6.53515625 14.0234375 C-7.66503212 15.14270126 -7.66503212 15.14270126 -8.81773376 16.28457642 C-11.22115793 18.66006085 -13.64139517 21.01755157 -16.0625 23.375 C-17.69710335 24.98452033 -19.33058096 26.5951848 -20.96289062 28.20703125 C-24.96230302 32.15137959 -28.97565371 36.08110324 -33 40 C-33.66 39.34 -34.32 38.68 -35 38 C-34.57626602 37.58292786 -34.15253204 37.16585571 -33.71595764 36.73614502 C-29.31112059 32.39762798 -24.91683935 28.04862649 -20.52856445 23.69335938 C-18.88900327 22.06889365 -17.24676086 20.44712945 -15.60180664 18.828125 C-13.23916526 16.50183195 -10.8863058 14.16602496 -8.53515625 11.828125 C-7.79660904 11.10506165 -7.05806183 10.38199829 -6.2971344 9.63702393 C-5.61650436 8.95662048 -4.93587433 8.27621704 -4.23461914 7.57519531 C-3.6328334 6.98007141 -3.03104767 6.38494751 -2.411026 5.77178955 C-0.87289784 3.84040105 -0.40460003 2.41338041 0 0 Z " fill="#05050E" transform="translate(328,16)"/>
<path d="M0 0 C0.66 0.66 1.32 1.32 2 2 C-15.16 19.16 -32.32 36.32 -50 54 C-50.66 53.67 -51.32 53.34 -52 53 C-51.37803741 52.38025803 -50.75607483 51.76051605 -50.11526489 51.12199402 C-44.25636045 45.28312065 -38.39986025 39.4418488 -32.54605293 33.5978651 C-29.53642056 30.59345291 -26.52586435 27.58997871 -23.51318359 24.58862305 C-20.60621649 21.69251548 -17.70169379 18.79397715 -14.79885483 15.89373207 C-13.69053866 14.78726461 -12.58134223 13.68167817 -11.47125626 12.57698631 C-9.91746782 11.03044893 -8.36682908 9.48081829 -6.81689453 7.93041992 C-5.93309113 7.04883713 -5.04928772 6.16725433 -4.13870239 5.25895691 C-1.87444703 2.99501255 -1.87444703 2.99501255 0 0 Z " fill="#000000" transform="translate(195,103)"/>
<path d="M0 0 C0.33 0.99 0.66 1.98 1 3 C-6.26 10.26 -13.52 17.52 -21 25 C-21.33 23.68 -21.66 22.36 -22 21 C-21.58492187 20.65710938 -21.16984375 20.31421875 -20.7421875 19.9609375 C-13.41455743 13.73705087 -6.749665 6.8349838 0 0 Z " fill="#04010D" transform="translate(22,22)"/>
<path d="M0 0 C1 3 1 3 0.00390625 5.0234375 C-0.47175781 5.79945313 -0.94742188 6.57546875 -1.4375 7.375 C-4.73092151 13.52514624 -4.48121671 19.17741649 -4 26 C-4.66 26.33 -5.32 26.66 -6 27 C-8.41930167 19.742095 -6.99126947 12.79606411 -4 6 C-2.77860812 3.8680364 -1.46998818 1.97688065 0 0 Z " fill="#1F1F1F" transform="translate(149,237)"/>
<path d="M0 0 C-1.53643852 3.68069887 -3.78150945 5.98775204 -6.625 8.75 C-7.85089844 9.94882812 -7.85089844 9.94882812 -9.1015625 11.171875 C-9.72804688 11.77515625 -10.35453125 12.3784375 -11 13 C-11.66 12.34 -12.32 11.68 -13 11 C-11.21427748 9.16052663 -9.42197551 7.32842259 -7.625 5.5 C-7.11710937 4.97535156 -6.60921875 4.45070313 -6.0859375 3.91015625 C-2.2265625 0 -2.2265625 0 0 0 Z " fill="#2A2635" transform="translate(330,395)"/>
<path d="M0 0 C0.33 0 0.66 0 1 0 C1.8313455 6.58681431 2.11805091 11.64584726 0 18 C-0.99 18.33 -1.98 18.66 -3 19 C-2.01 12.73 -1.02 6.46 0 0 Z " fill="#1C1C1C" transform="translate(430,263)"/>
<path d="M0 0 C0.66 0 1.32 0 2 0 C3.875 2.046875 3.875 2.046875 6 4.75 C6.70125 5.63171875 7.4025 6.5134375 8.125 7.421875 C9.69307683 9.57798064 10.91326484 11.57748621 12 14 C11.01 14.495 11.01 14.495 10 15 C8.32742872 12.87941855 6.66184582 10.75395924 5 8.625 C4.28457031 7.72007812 4.28457031 7.72007812 3.5546875 6.796875 C0 2.2265625 0 2.2265625 0 0 Z " fill="#151515" transform="translate(406,193)"/>
<path d="M0 0 C0.598125 0.226875 1.19625 0.45375 1.8125 0.6875 C1.8125 1.6775 1.8125 2.6675 1.8125 3.6875 C0.4925 3.3575 -0.8275 3.0275 -2.1875 2.6875 C-2.1875 3.3475 -2.1875 4.0075 -2.1875 4.6875 C-1.1975 5.0175 -0.2075 5.3475 0.8125 5.6875 C0.8125 6.3475 0.8125 7.0075 0.8125 7.6875 C-0.8375 7.3575 -2.4875 7.0275 -4.1875 6.6875 C-4.875 4.875 -4.875 4.875 -5.1875 2.6875 C-3.58493056 0.24147296 -2.95482043 -0.4221172 0 0 Z " fill="#101010" transform="translate(167.1875,26.3125)"/>
<path d="M0 0 C-2.56564811 2.56564811 -4.47920562 3.13640893 -8 4 C-11.875 3.625 -11.875 3.625 -15 3 C-15 2.67 -15 2.34 -15 2 C-13.06524329 1.46906676 -11.12706845 0.95057683 -9.1875 0.4375 C-8.10855469 0.14746094 -7.02960938 -0.14257812 -5.91796875 -0.44140625 C-3 -1 -3 -1 0 0 Z " fill="#1B1B1B" transform="translate(203,342)"/>
<path d="M0 0 C3.60415049 1.2013835 4.14706011 2.26143988 6.1875 5.375 C6.71730469 6.16648437 7.24710937 6.95796875 7.79296875 7.7734375 C9 10 9 10 9 13 C5.41193683 9.61127367 2.54315201 6.23858668 0 2 C0 1.34 0 0.68 0 0 Z " fill="#191919" transform="translate(92,300)"/>
<path d="M0 0 C2.0625 0.4375 2.0625 0.4375 4 1 C3.67 2.65 3.34 4.3 3 6 C1.68 5.67 0.36 5.34 -1 5 C-1 1 -1 1 0 0 Z " fill="#CECECE" transform="translate(89,400)"/>
<path d="M0 0 C5.445 1.485 5.445 1.485 11 3 C10.67 3.66 10.34 4.32 10 5 C5.6822542 4.49202991 1.96697886 3.80317221 -2 2 C-1.34 1.34 -0.68 0.68 0 0 Z " fill="#1B1B1B" transform="translate(143,341)"/>
<path d="M0 0 C7.48291572 6.15034169 7.48291572 6.15034169 10 10 C7 10 7 10 5.17578125 8.3203125 C4.56089844 7.59585937 3.94601563 6.87140625 3.3125 6.125 C2.68988281 5.40570313 2.06726563 4.68640625 1.42578125 3.9453125 C0 2 0 2 0 0 Z " fill="#222222" transform="translate(102,313)"/>
<path d="M0 0 C1.65 0.33 3.3 0.66 5 1 C4.67 2.32 4.34 3.64 4 5 C2.35 4.67 0.7 4.34 -1 4 C-0.67 2.68 -0.34 1.36 0 0 Z " fill="#D5D5D5" transform="translate(280,48)"/>
<path d="M0 0 C5.02692063 0.45699278 8.14896261 2.99241748 12 6 C11.34 6.66 10.68 7.32 10 8 C8.33055479 6.85821872 6.6645052 5.71147095 5 4.5625 C4.071875 3.92441406 3.14375 3.28632813 2.1875 2.62890625 C1.465625 2.09136719 0.74375 1.55382812 0 1 C0 0.67 0 0.34 0 0 Z " fill="#151515" transform="translate(113,326)"/>
<path d="M0 0 C2.14699969 3.44175522 2.09856795 5.7720292 1.625 9.75 C1.51414062 10.73484375 1.40328125 11.7196875 1.2890625 12.734375 C1.19367188 13.48203125 1.09828125 14.2296875 1 15 C0.67 15 0.34 15 0 15 C-0.19601608 13.25093341 -0.38147403 11.50068154 -0.5625 9.75 C-0.66691406 8.77546875 -0.77132813 7.8009375 -0.87890625 6.796875 C-0.98974468 4.2368648 -0.77738092 2.41851841 0 0 Z " fill="#222222" transform="translate(430,235)"/>
<path d="M0 0 C0.66 0 1.32 0 2 0 C0.79157144 4.43090471 -0.51668565 6.98112756 -4 10 C-4 5.75354935 -2.18249194 3.61475228 0 0 Z " fill="#181818" transform="translate(421,296)"/>
<path d="M0 0 C1 3 1 3 0.22265625 5.04296875 C-0.16019531 5.75066406 -0.54304687 6.45835937 -0.9375 7.1875 C-1.31777344 7.90292969 -1.69804687 8.61835938 -2.08984375 9.35546875 C-2.54037109 10.16951172 -2.54037109 10.16951172 -3 11 C-3.66 9.68 -4.32 8.36 -5 7 C-3.35 4.69 -1.7 2.38 0 0 Z " fill="#171717" transform="translate(149,237)"/>
<path d="M0 0 C1.08667969 0.29197266 1.08667969 0.29197266 2.1953125 0.58984375 C2.74960938 0.74582031 3.30390625 0.90179688 3.875 1.0625 C3.875 1.7225 3.875 2.3825 3.875 3.0625 C-2.75 2.3125 -2.75 2.3125 -6.125 0.0625 C-3.57797384 -1.21101308 -2.6967055 -0.73941925 0 0 Z " fill="#14111F" transform="translate(236.125,427.9375)"/>
<path d="M0 0 C3.96 0.33 7.92 0.66 12 1 C12 1.33 12 1.66 12 2 C8.37 2.33 4.74 2.66 1 3 C0.67 2.01 0.34 1.02 0 0 Z " fill="#262137" transform="translate(248,367)"/>
<path d="M0 0 C2.97 0.99 5.94 1.98 9 3 C7.02 3.99 7.02 3.99 5 5 C2.25 3.75 2.25 3.75 0 2 C0 1.34 0 0.68 0 0 Z " fill="#1A1A1A" transform="translate(155,279)"/>
<path d="M0 0 C2.37948772 0.17625835 3.70225849 0.69719773 5.37890625 2.40234375 C6.62115486 3.90649092 7.81376056 5.45129851 9 7 C6 7 6 7 3.375 4.625 C1 2 1 2 0 0 Z " fill="#151515" transform="translate(357,233)"/>
<path d="M0 0 C2.97 0.33 5.94 0.66 9 1 C9 1.66 9 2.32 9 3 C2.84765625 2.4140625 2.84765625 2.4140625 1 2 C0.67 1.34 0.34 0.68 0 0 Z " fill="#202020" transform="translate(261,80)"/>
</svg>
